<svg width="161" height="298" viewBox="0 0 161 298" fill="none" xmlns="http://www.w3.org/2000/svg">
<path d="M55.2836 37.6889C55.2295 37.4811 55.1603 37.28 55.07 37.0856C54.736 36.3651 53.9296 34.5486 53.9055 33.5868C53.8784 32.5378 52.067 38.9356 54.3538 42.6087C56.6407 46.2818 56.0389 40.6616 56.0389 40.6616L55.2836 37.6889Z" fill="#FECF1B" stroke="black" stroke-width="0.126537" stroke-miterlimit="10"/>
<path d="M59.6481 61.0276C59.6481 61.0276 60.2499 67.9348 59.6481 68.8363C59.0463 69.7379 55.7363 70.4115 55.7363 70.4115L59.4946 86.5216C59.7474 87.6108 60.599 88.3951 61.607 88.4721C64.6762 88.7101 71.3382 89.1055 76.6312 88.5894C77.8047 88.4755 78.7194 87.4164 78.7766 86.1094L79.4235 71.1119C79.4747 69.9121 78.7856 68.8263 77.7535 68.4811L77.7054 68.3973C76.905 68.1292 76.3423 67.4958 76.1467 66.5943C75.6713 64.4159 74.9641 60.2099 75.5991 56.6675C76.4326 52.0224 68.5609 55.0655 67.3633 55.5548C67.267 55.595 67.1737 55.6386 67.0804 55.6922L59.6511 60.0155" fill="#F8A98C"/>
<mask id="mask0_2300_2" style="mask-type:luminance" maskUnits="userSpaceOnUse" x="55" y="54" width="25" height="35">
<path d="M59.6461 61.0277C59.6461 61.0277 60.2479 67.9349 59.6461 68.8364C59.0443 69.7379 55.7344 70.4116 55.7344 70.4116L59.4927 86.5217C59.7454 87.6109 60.597 88.3951 61.605 88.4722C64.6743 88.7102 71.3363 89.1056 76.6292 88.5895C77.8027 88.4755 78.7175 87.4165 78.7747 86.1095L79.4216 71.112C79.4727 69.9122 78.7837 68.8264 77.7516 68.4812L77.7034 68.3974C76.903 68.1293 76.3403 67.4958 76.1448 66.5943C75.6693 64.4159 74.9622 60.2099 75.5971 56.6675C76.4306 52.0225 68.5589 55.0656 67.3613 55.5549C67.2651 55.5951 67.1718 55.6386 67.0785 55.6923L59.6491 60.0156" fill="white"/>
</mask>
<g mask="url(#mask0_2300_2)">
<path d="M53.9043 62.4384C53.9043 62.4384 55.5502 67.8073 61.4359 69.1948C67.3216 70.5823 78.6597 62.6361 81.1151 59.2345C83.5705 55.8328 86.8443 45.5307 86.8443 45.5307L76.8513 40.3394L55.3817 54.2242L53.9043 62.4351V62.4384Z" fill="#EF8A79"/>
</g>
<path d="M59.6481 61.0276C59.6481 61.0276 60.2499 67.9348 59.6481 68.8363C59.0463 69.7379 55.7363 70.4115 55.7363 70.4115L59.4946 86.5216C59.7474 87.6108 60.599 88.3951 61.607 88.4721C64.6762 88.7101 71.3382 89.1055 76.6312 88.5894C77.8047 88.4755 78.7194 87.4164 78.7766 86.1094L79.4235 71.1119C79.4747 69.9121 78.7856 68.8263 77.7535 68.4811L77.7054 68.3973C76.905 68.1292 76.3423 67.4958 76.1467 66.5943C75.6713 64.4159 74.9641 60.2099 75.5991 56.6675C76.4326 52.0224 68.5609 55.0655 67.3633 55.5548C67.267 55.595 67.1737 55.6386 67.0804 55.6922L59.6511 60.0155" stroke="black" stroke-width="0.126537" stroke-miterlimit="10"/>
<path d="M41.1445 241.852C41.1445 241.852 46.0884 252.69 64.928 266.635L78.6072 251.427C78.6072 251.427 61.7776 237.344 59.0604 227.826C56.3462 218.305 46.4374 227.826 46.4374 227.826L41.1445 241.852Z" fill="#F8A98C"/>
<mask id="mask1_2300_2" style="mask-type:luminance" maskUnits="userSpaceOnUse" x="41" y="223" width="38" height="44">
<path d="M41.1445 241.852C41.1445 241.852 46.0884 252.69 64.928 266.635L78.6072 251.427C78.6072 251.427 61.7776 237.344 59.0604 227.826C56.3462 218.305 46.4374 227.826 46.4374 227.826L41.1445 241.852Z" fill="white"/>
</mask>
<g mask="url(#mask1_2300_2)">
<path d="M35.4303 252.556C35.4303 252.556 54.5227 249.945 71.1266 234.931C87.7306 219.917 69.1377 205.583 69.1377 205.583L31.1484 236.868L35.4303 252.556Z" fill="#EF8A79"/>
</g>
<path d="M41.1445 241.852C41.1445 241.852 46.0884 252.69 64.928 266.635L78.6072 251.427C78.6072 251.427 61.7776 237.344 59.0604 227.826C56.3462 218.305 46.4374 227.826 46.4374 227.826L41.1445 241.852Z" stroke="black" stroke-width="0.126537" stroke-miterlimit="10"/>
<path d="M95.4571 267.473C95.4571 267.473 103.121 273.593 103.952 275.895C104.782 278.197 104.785 279.203 107.192 280.543C109.6 281.884 116.821 278.533 119.529 279.203C122.238 279.873 123.724 286.797 134.415 287.189C145.106 287.581 149.921 289.927 151.726 289.927C153.532 289.927 161.957 291.603 160.453 292.608C158.948 293.614 89.7399 295.289 76.1992 293.614C62.6585 291.938 64.163 278.533 64.163 278.533L72.5884 269.819L85.9906 267.473H95.4571Z" fill="#E67325"/>
<mask id="mask2_2300_2" style="mask-type:luminance" maskUnits="userSpaceOnUse" x="64" y="267" width="97" height="28">
<path d="M95.4571 267.473C95.4571 267.473 103.121 273.593 103.952 275.895C104.782 278.197 104.785 279.203 107.192 280.543C109.6 281.884 116.821 278.533 119.529 279.203C122.238 279.873 123.724 286.797 134.415 287.189C145.106 287.581 149.921 289.927 151.726 289.927C153.532 289.927 161.957 291.603 160.453 292.608C158.948 293.614 89.7399 295.289 76.1992 293.614C62.6585 291.938 64.163 278.533 64.163 278.533L72.5884 269.819L85.9906 267.473H95.4571Z" fill="white"/>
</mask>
<g mask="url(#mask2_2300_2)">
<path d="M51.8926 297.813C51.8926 297.813 92.8999 287.079 106.892 266.635L129.911 273.673C129.911 273.673 109.058 306.182 85.1817 308.192L51.8926 297.813Z" fill="#E66925"/>
<path d="M127.805 302.16C127.805 302.16 146.482 290.846 151.438 276.562C156.394 262.279 181.366 264.96 181.366 264.96C181.366 264.96 187.276 283.081 174.09 297.813C160.904 312.546 140.142 321.598 140.142 321.598L125.283 316.481L127.805 302.16Z" fill="#E66925"/>
<path d="M103.951 275.896C103.951 275.896 101.324 283.275 95.7576 287.19C90.1909 291.104 108.907 290.266 116.099 279.458C123.29 268.65 115.834 269.371 115.834 269.371L103.951 275.896Z" fill="#E65D25"/>
<path d="M123.359 294.107C123.359 294.107 128.706 291.134 146.61 290.447C164.514 289.76 165.116 291.771 165.116 291.771L157.909 297.813H143.165L123.359 294.107Z" fill="#E65D25"/>
<path d="M76.1992 293.614C76.1992 293.614 65.2071 283.708 81.1581 272.826C81.1581 272.826 69.7327 271.371 67.172 280.899C64.6113 290.427 68.9353 303.129 68.9353 303.129L85.1782 304.466L76.1961 293.614" fill="#E65D25"/>
</g>
<path d="M95.4571 267.473C95.4571 267.473 103.121 273.593 103.952 275.895C104.782 278.197 104.785 279.203 107.192 280.543C109.6 281.884 116.821 278.533 119.529 279.203C122.238 279.873 123.724 286.797 134.415 287.189C145.106 287.581 149.921 289.927 151.726 289.927C153.532 289.927 161.957 291.603 160.453 292.608C158.948 293.614 89.7399 295.289 76.1992 293.614C62.6585 291.938 64.163 278.533 64.163 278.533L72.5884 269.819L85.9906 267.473H95.4571Z" stroke="black" stroke-width="0.126537" stroke-miterlimit="10"/>
<path d="M58.4221 276.562C58.4221 276.562 55.4371 282.89 54.5344 287.246C53.7521 291.017 52.5214 292.81 53.7641 296.037C54.1493 297.032 55.0279 297.679 55.9998 297.713C58.058 297.783 61.693 297.87 62.9598 297.636C64.7652 297.301 75.8987 297.944 78.6068 297.79C81.315 297.636 84.9258 296.63 84.6249 295.29C84.324 293.949 82.8195 293.279 81.315 292.944C79.8104 292.609 77.4032 291.268 75.8987 290.598C74.3942 289.928 72.2878 287.917 72.2878 287.917L73.4914 281.884L71.3851 277.527L58.4221 276.562Z" fill="#F8A98C"/>
<mask id="mask3_2300_2" style="mask-type:luminance" maskUnits="userSpaceOnUse" x="53" y="276" width="32" height="22">
<path d="M58.4221 276.562C58.4221 276.562 55.4371 282.89 54.5344 287.246C53.7521 291.017 52.5214 292.81 53.7641 296.037C54.1493 297.032 55.0279 297.679 55.9998 297.713C58.058 297.783 61.693 297.87 62.9598 297.636C64.7652 297.301 75.8987 297.944 78.6068 297.79C81.315 297.636 84.9258 296.63 84.6249 295.29C84.324 293.949 82.8195 293.279 81.315 292.944C79.8104 292.609 77.4032 291.268 75.8987 290.598C74.3942 289.928 72.2878 287.917 72.2878 287.917L73.4914 281.884L71.3851 277.527L58.4221 276.562Z" fill="white"/>
</mask>
<g mask="url(#mask3_2300_2)">
<path d="M51.0733 279.706C51.0733 279.706 51.7834 280.192 53.0262 280.899C57.1335 283.245 67.0603 288.027 76.3252 285.721C88.3885 282.719 84.6422 276.562 84.6422 276.562L74.1467 273.583L50.7754 270.657L51.0763 279.706H51.0733Z" fill="#EF8A79"/>
<path d="M48.2148 297.813C48.2148 297.813 65.7125 295.038 69.8288 296.251C73.9452 297.464 80.9743 299.378 80.9743 299.378L69.8288 305.062L55.8879 303.162L48.2148 297.81V297.813Z" fill="#EF8A79"/>
</g>
<path d="M58.4221 276.562C58.4221 276.562 55.4371 282.89 54.5344 287.246C53.7521 291.017 52.5214 292.81 53.7641 296.037C54.1493 297.032 55.0279 297.679 55.9998 297.713C58.058 297.783 61.693 297.87 62.9598 297.636C64.7652 297.301 75.8987 297.944 78.6068 297.79C81.315 297.636 84.9258 296.63 84.6249 295.29C84.324 293.949 82.8195 293.279 81.315 292.944C79.8104 292.609 77.4032 291.268 75.8987 290.598C74.3942 289.928 72.2878 287.917 72.2878 287.917L73.4914 281.884L71.3851 277.527L58.4221 276.562Z" stroke="black" stroke-width="0.126537" stroke-miterlimit="10"/>
<path d="M49.8055 138.723C49.8055 138.723 37.0832 165.256 35.8796 200.446C34.676 235.635 40.0923 246.249 40.0923 246.249C40.0923 246.249 48.5176 244.684 63.8637 236.306C63.8637 236.306 65.6692 249.936 63.8637 257.363C62.0583 264.789 56.6932 278.989 56.6932 278.989C56.6932 278.989 67.4746 286.912 96.6624 285.571C96.6624 285.571 104.787 230.608 103.884 202.122C102.981 173.635 104.185 159.224 89.7416 141.461C75.2981 123.699 71.9882 132.077 71.9882 132.077L49.8055 138.723Z" fill="#E67325"/>
<mask id="mask4_2300_2" style="mask-type:luminance" maskUnits="userSpaceOnUse" x="35" y="130" width="69" height="156">
<path d="M49.8074 138.723C49.8074 138.723 37.0852 165.256 35.8816 200.446C34.6779 235.635 40.0942 246.249 40.0942 246.249C40.0942 246.249 48.5196 244.684 63.8657 236.306C63.8657 236.306 65.6711 249.936 63.8657 257.362C62.0603 264.789 56.6951 278.989 56.6951 278.989C56.6951 278.989 67.4766 286.912 96.6643 285.571C96.6643 285.571 104.789 230.608 103.886 202.122C102.983 173.635 104.187 159.224 89.7435 141.461C75.3001 123.699 71.9901 132.077 71.9901 132.077L49.8074 138.723Z" fill="white"/>
</mask>
<g mask="url(#mask4_2300_2)">
<path d="M33.3574 138.79C33.3574 138.79 42.6524 165.738 106.896 177.311L105.292 154.642C105.292 154.642 76.0618 164.348 42.8088 125.508L33.3574 138.79Z" fill="#E66925"/>
<path d="M30.387 159.605C30.387 159.605 56.322 197.61 112.375 194.587L109.943 223.593C109.943 223.593 57.4654 233.51 18.9135 170.98L30.384 159.605" fill="#E66925"/>
<path d="M22.5711 208.147C22.5711 208.147 49.2734 254.235 116.977 249.543L110.959 278.7C110.959 278.7 42.9544 270.992 11.3594 227.759L22.5711 208.147Z" fill="#E66925"/>
<path d="M63.8655 236.306C63.8655 236.306 72.3781 220.363 67.8977 183.176C67.8977 183.176 70.4433 214.535 53.2376 241.591C36.0319 268.647 59.8786 247.452 59.8786 247.452L63.8655 236.306Z" fill="#E65D25"/>
<path d="M37.6504 144.916C37.6504 144.916 71.5383 182.68 101.478 145.566C131.418 108.453 37.6504 144.916 37.6504 144.916Z" fill="#E65D25"/>
</g>
<path d="M49.8055 138.723C49.8055 138.723 37.0832 165.256 35.8796 200.446C34.676 235.635 40.0923 246.249 40.0923 246.249C40.0923 246.249 48.5176 244.684 63.8637 236.306C63.8637 236.306 65.6692 249.936 63.8637 257.362C62.0583 264.789 56.6932 278.989 56.6932 278.989C56.6932 278.989 67.4746 286.912 96.6624 285.571C96.6624 285.571 104.787 230.608 103.884 202.122C102.981 173.635 104.185 159.224 89.7416 141.461C75.2981 123.699 71.9882 132.077 71.9882 132.077L49.8055 138.723Z" stroke="black" stroke-width="0.126537" stroke-miterlimit="10"/>
<path d="M46.5566 95.403C46.5566 95.403 53.6309 85.8281 69.8797 86.1633C86.1286 86.4984 90.0403 94.5417 90.0403 94.5417C90.0403 94.5417 90.6422 105.601 88.2349 115.32C85.8277 125.039 92.1467 138.445 93.6512 142.131C95.1557 145.818 82.2168 158.553 72.287 159.559C63.8015 160.417 50.5887 149.407 46.9267 146.187C46.367 145.694 46.1835 144.846 46.4814 144.126C48.1153 140.151 52.7492 126.722 48.2176 111.299C48.2176 111.299 46.1052 102.3 46.5596 95.403H46.5566Z" fill="#0F5712"/>
<mask id="mask5_2300_2" style="mask-type:luminance" maskUnits="userSpaceOnUse" x="46" y="86" width="48" height="74">
<path d="M46.5586 95.403C46.5586 95.403 53.6328 85.8281 69.8817 86.1633C86.1305 86.4984 90.0423 94.5417 90.0423 94.5417C90.0423 94.5417 90.6441 105.601 88.2369 115.32C85.8296 125.039 92.1486 138.445 93.6532 142.131C95.1577 145.818 82.2188 158.553 72.2889 159.559C63.8034 160.417 50.5907 149.407 46.9287 146.187C46.369 145.694 46.1854 144.846 46.4833 144.126C48.1172 140.151 52.7512 126.722 48.2196 111.299C48.2196 111.299 46.1072 102.3 46.5616 95.403H46.5586Z" fill="white"/>
</mask>
<g mask="url(#mask5_2300_2)">
<path d="M60.817 87.3527C61.6174 96.5858 61.9183 105.869 61.7107 115.142C61.6083 119.751 61.3797 124.355 61.0276 128.95C60.9855 129.5 60.9403 130.049 60.8952 130.599C60.8561 131.055 60.7207 131.638 60.8651 132.084C61.0095 132.529 61.3767 132.674 61.7678 132.707C62.2794 132.751 62.7969 132.747 63.3085 132.761C65.3937 132.818 67.479 132.821 69.5673 132.771C71.6556 132.72 73.7378 132.613 75.8171 132.452C76.6656 132.385 77.6797 132.449 78.465 132.033C79.2504 131.618 79.4821 130.716 79.6416 129.838C80.448 125.388 81.0799 120.893 81.5553 116.382C82.0308 111.871 82.3347 107.32 82.4731 102.769C82.5423 100.48 82.5694 98.1911 82.5513 95.9021C82.5423 94.7559 82.5242 93.6131 82.4941 92.4703C82.4671 91.4113 82.4701 90.3355 82.3317 89.2865C82.2083 88.3481 81.9044 87.4499 81.3056 86.7562C80.7639 86.1295 80.0538 85.7273 79.3286 85.4324C77.5954 84.7252 75.6907 84.3901 73.8672 84.1186C69.9946 83.5455 66.0557 83.6461 62.2132 84.4135C61.2382 84.6079 60.2753 84.8492 59.3185 85.1274C58.7558 85.2916 58.9965 86.2602 59.5592 86.0959C63.2152 85.0268 67.0006 84.5912 70.7769 84.8057C72.6666 84.9129 74.5443 85.181 76.3948 85.6133C77.8392 85.9518 79.7078 86.2568 80.7459 87.5572C81.3056 88.2609 81.456 89.2228 81.5132 90.1277C81.5794 91.1766 81.5914 92.2357 81.6155 93.288C81.6637 95.4664 81.6697 97.6482 81.6396 99.8299C81.5794 104.19 81.3597 108.547 80.9896 112.89C80.6165 117.24 80.0869 121.574 79.4039 125.877C79.2323 126.949 79.0518 128.022 78.8622 129.091C78.7148 129.912 78.6757 130.984 77.8121 131.236C77.4089 131.353 76.9786 131.356 76.5663 131.39C76.0698 131.43 75.5764 131.47 75.0799 131.504C74.0899 131.574 73.0969 131.631 72.1039 131.678C70.1179 131.769 68.132 131.812 66.146 131.802C65.153 131.799 64.16 131.782 63.167 131.752C62.9173 131.745 62.6705 131.735 62.4238 131.728C62.3125 131.725 61.813 131.779 61.7257 131.698C61.7377 131.708 61.7407 131.692 61.7197 131.618C61.6896 131.504 61.7468 131.289 61.7558 131.175C61.7799 130.901 61.8009 130.626 61.825 130.351C62.1861 125.954 62.4358 121.544 62.5682 117.13C62.836 108.302 62.6435 99.4546 61.9935 90.6505C61.9123 89.5512 61.822 88.4486 61.7287 87.3527C61.6745 86.7159 60.7688 86.7092 60.826 87.3527H60.817Z" fill="#FECF1B"/>
<path d="M44.3032 92.5309C44.3032 92.5309 54.88 112.679 54.7055 122.881C54.5309 133.083 51.3444 142.5 51.2842 142.986C51.224 143.472 47.0113 149.84 47.0113 149.84L41.914 148.985L38.3242 144.655L44.905 131.742L43.3192 91.435L44.3032 92.5309Z" fill="#0F4612"/>
<path d="M90.1398 91.0093C90.1398 91.0093 89.2883 105.434 87.4828 112.807C85.6774 120.18 86.4116 125.512 87.549 128.542C88.6864 131.571 93.0526 142.591 92.2251 146.8C91.3976 151.009 96.4949 147.722 96.4949 147.722L101.024 133.921L91.9994 113.477L94.4067 98.7309L90.1428 91.0093H90.1398Z" fill="#0F4612"/>
<path d="M46.5149 139.628C50.5531 142.094 54.7055 144.333 58.9483 146.331C61.0637 147.326 63.2001 148.261 65.3546 149.136C66.4137 149.565 67.4789 149.98 68.5502 150.379C69.6214 150.778 70.7016 151.207 71.803 151.502C72.9043 151.797 74.0838 151.917 75.2303 151.656C76.2834 151.418 77.2764 150.915 78.2453 150.406C80.2042 149.38 82.1661 148.345 84.0498 147.155C85.9334 145.965 87.6576 144.665 89.2283 143.076C90.5403 141.749 91.7198 140.271 92.8843 138.79C95.4631 135.512 98.1411 131.923 101.969 130.472C102.516 130.264 102.282 129.292 101.728 129.503C98.3548 130.783 95.8121 133.599 93.4952 136.501C92.3126 137.979 91.1692 139.497 89.9295 140.918C88.5573 142.493 87.0558 143.881 85.4008 145.07C83.6225 146.354 81.7328 147.43 79.8251 148.455C78.8622 148.971 77.9023 149.501 76.9213 149.973C75.9404 150.446 74.8511 150.831 73.7408 150.801C72.6304 150.771 71.478 150.379 70.3917 149.99C69.3054 149.601 68.2041 149.189 67.1179 148.764C64.9664 147.922 62.833 147.024 60.7236 146.062C56.0175 143.921 51.4227 141.471 46.9633 138.75C46.4547 138.438 45.9974 139.306 46.5089 139.618L46.5149 139.628Z" fill="#FECF1B"/>
<path d="M46.0563 102.126C50.946 99.6589 55.7063 96.8806 60.3102 93.8074C60.8067 93.4756 60.3553 92.6042 59.8558 92.9393C55.2519 96.0159 50.4916 98.7942 45.6019 101.257C45.0723 101.526 45.5327 102.39 46.0563 102.126Z" fill="#FECF1B"/>
<path d="M81.8408 94.9609C86.3243 97.4141 90.2902 101.003 93.3264 105.427C93.6754 105.933 94.4578 105.434 94.1057 104.921C90.9733 100.36 86.9261 96.6265 82.2952 94.0929C81.7746 93.808 81.3173 94.676 81.8408 94.9609Z" fill="#FECF1B"/>
</g>
<path d="M46.5566 95.403C46.5566 95.403 53.6309 85.8281 69.8797 86.1633C86.1286 86.4984 90.0403 94.5417 90.0403 94.5417C90.0403 94.5417 90.6422 105.601 88.2349 115.32C85.8277 125.039 92.1467 138.445 93.6512 142.131C95.1557 145.818 82.2168 158.553 72.287 159.559C63.8015 160.417 50.5887 149.407 46.9267 146.187C46.367 145.694 46.1835 144.846 46.4814 144.126C48.1153 140.151 52.7492 126.722 48.2176 111.299C48.2176 111.299 46.1052 102.3 46.5596 95.403H46.5566Z" stroke="black" stroke-width="0.126537" stroke-miterlimit="10"/>
<path d="M71.3853 137.439C71.3853 137.439 23.5415 176.986 10.9035 178.326L8.19531 176.316C8.19531 176.316 54.1706 140.023 67.8948 137.057L71.3853 137.439Z" fill="#99102F"/>
<mask id="mask6_2300_2" style="mask-type:luminance" maskUnits="userSpaceOnUse" x="8" y="137" width="64" height="42">
<path d="M71.3834 137.439C71.3834 137.439 23.5395 176.986 10.9015 178.326L8.19336 176.316C8.19336 176.316 54.1686 140.023 67.8929 137.057L71.3834 137.439Z" fill="white"/>
</mask>
<g mask="url(#mask6_2300_2)">
<path d="M44 152.856C44 152.856 51.9559 144.83 66.6341 138.79C66.6341 138.79 56.9389 146.153 44 152.856Z" fill="#88102F"/>
<path d="M34.2188 161.067C34.2188 161.067 47.0313 153.131 53.7144 148.217C53.7144 148.217 44.7504 158.05 34.2188 161.067Z" fill="#88102F"/>
<path d="M10.75 176.149C10.75 176.149 14.6618 172.462 23.9898 166.43C23.9898 166.43 17.9717 172.797 10.75 176.149Z" fill="#88102F"/>
</g>
<path d="M71.3853 137.439C71.3853 137.439 23.5415 176.986 10.9035 178.326L8.19531 176.316C8.19531 176.316 54.1706 140.023 67.8948 137.057L71.3853 137.439Z" stroke="black" stroke-width="0.126537" stroke-miterlimit="10"/>
<path d="M67.8956 130.14C67.8956 130.14 64.9437 130.432 53.4522 125.143C52.417 124.667 51.3127 124.144 50.1332 123.575C50.1332 123.575 50.0218 130.737 49.2305 134.634C49.2305 134.634 54.7731 138.619 67.8956 135.516V130.14Z" fill="#99102F" stroke="black" stroke-width="0.126537" stroke-miterlimit="10"/>
<path d="M75.9825 135.516C75.9825 135.516 85.0909 135.566 89.5202 131.142C89.5202 131.142 87.9344 126.048 87.7328 121.571C87.7328 121.571 82.5602 127.754 76.5181 129.58C70.4759 131.407 75.9795 135.516 75.9795 135.516H75.9825Z" fill="#99102F" stroke="black" stroke-width="0.126537" stroke-miterlimit="10"/>
<path d="M71.3858 137.439C71.3858 137.439 72.8121 260.077 68.9395 278.687C68.9395 278.687 73.793 282.595 82.6697 280.899C82.6697 280.899 87.6046 156.261 75.9836 135.512C74.9967 133.749 73.4921 135.76 73.6907 135.512L71.3858 137.436V137.439Z" fill="#99102F"/>
<mask id="mask7_2300_2" style="mask-type:luminance" maskUnits="userSpaceOnUse" x="68" y="134" width="16" height="148">
<path d="M71.3878 137.439C71.3878 137.439 72.8141 260.077 68.9414 278.687C68.9414 278.687 73.795 282.595 82.6717 280.899C82.6717 280.899 87.6065 156.261 75.9856 135.512C74.9986 133.749 73.4941 135.76 73.6927 135.512L71.3878 137.436V137.439Z" fill="white"/>
</mask>
<g mask="url(#mask7_2300_2)">
<path d="M75.205 164.994C75.205 164.994 75.8459 153.023 73.6914 140.791C73.6914 140.791 74.3594 160.205 75.205 164.994Z" fill="#88102F"/>
<path d="M71.5547 125.418C71.5547 125.418 80.624 155.081 80.7774 190.328C80.7774 190.328 81.0964 198.458 79.8235 204.209C78.5507 209.96 79.2187 147.323 71.5547 125.421V125.418Z" fill="#88102F"/>
</g>
<path d="M71.3858 137.439C71.3858 137.439 72.8121 260.077 68.9395 278.687C68.9395 278.687 73.793 282.595 82.6697 280.899C82.6697 280.899 87.6046 156.261 75.9836 135.512C74.9967 133.749 73.4921 135.76 73.6907 135.512L71.3858 137.436V137.439Z" stroke="black" stroke-width="0.126537" stroke-miterlimit="10"/>
<path d="M103.95 149.873C103.95 149.873 105.491 149.839 105.286 145.315C105.286 145.315 107.474 146.508 112.574 146.702C117.115 146.877 121.637 145.972 125.871 144.128C130.249 142.225 136.604 139.597 139.385 139.115C143.832 138.344 146.607 138.78 146.607 142.131C146.607 145.482 142.695 145.482 142.093 143.136C141.491 140.791 142.093 140.791 128.251 146.823C114.41 152.856 114.25 152.587 103.947 149.873H103.95Z" fill="#E67325"/>
<mask id="mask8_2300_2" style="mask-type:luminance" maskUnits="userSpaceOnUse" x="103" y="138" width="44" height="14">
<path d="M103.95 149.873C103.95 149.873 105.491 149.839 105.286 145.315C105.286 145.315 107.474 146.508 112.574 146.702C117.115 146.877 121.637 145.972 125.871 144.128C130.249 142.225 136.604 139.597 139.385 139.115C143.832 138.344 146.607 138.78 146.607 142.131C146.607 145.482 142.695 145.482 142.093 143.136C141.491 140.79 142.093 140.79 128.251 146.823C114.41 152.855 114.25 152.587 103.947 149.873H103.95Z" fill="white"/>
</mask>
<g mask="url(#mask8_2300_2)">
<path d="M101.402 145.731C101.402 145.731 110.622 153.13 121.771 148.217C132.919 143.304 141.191 139.148 143.526 139.551C145.861 139.953 147.013 142.503 145.683 145.251C144.353 147.999 126.266 151.713 126.266 151.713L111.257 156.039L103.954 153.476L101.402 145.731Z" fill="#E65D25"/>
</g>
<path d="M103.95 149.873C103.95 149.873 105.491 149.839 105.286 145.315C105.286 145.315 107.474 146.508 112.574 146.702C117.115 146.877 121.637 145.972 125.871 144.128C130.249 142.225 136.604 139.597 139.385 139.115C143.832 138.344 146.607 138.78 146.607 142.131C146.607 145.482 142.695 145.482 142.093 143.136C141.491 140.791 142.093 140.791 128.251 146.823C114.41 152.856 114.25 152.587 103.947 149.873H103.95Z" stroke="black" stroke-width="0.126537" stroke-miterlimit="10"/>
<path d="M89.0558 135.693C88.5864 135.368 87.9726 135.499 87.6446 135.992C86.9525 137.031 85.8271 138.79 85.2283 140.121C84.3497 142.078 96.6386 149.454 103.06 150.443C103.478 150.507 103.899 150.359 104.203 150.031C104.781 149.414 105.512 148.084 105.226 145.426C105.166 144.876 104.823 144.414 104.348 144.25C102.569 143.643 97.5594 141.605 89.0558 135.693Z" fill="#99102F"/>
<mask id="mask9_2300_2" style="mask-type:luminance" maskUnits="userSpaceOnUse" x="85" y="135" width="21" height="16">
<path d="M89.0558 135.694C88.5864 135.368 87.9726 135.499 87.6446 135.992C86.9525 137.031 85.8271 138.79 85.2283 140.121C84.3497 142.078 96.6386 149.454 103.06 150.443C103.478 150.507 103.899 150.359 104.203 150.031C104.781 149.414 105.512 148.084 105.226 145.426C105.166 144.876 104.823 144.414 104.348 144.25C102.569 143.643 97.5594 141.605 89.0558 135.694Z" fill="white"/>
</mask>
<g mask="url(#mask9_2300_2)">
<path d="M84.6172 135.747C84.6172 135.747 90.4488 146.428 105.816 148.217C121.183 150.007 102.831 166.094 102.831 166.094L62.6211 156.881L85.529 139.45" fill="#88102F"/>
</g>
<path d="M89.0558 135.693C88.5864 135.368 87.9726 135.499 87.6446 135.992C86.9525 137.031 85.8271 138.79 85.2283 140.121C84.3497 142.078 96.6386 149.454 103.06 150.443C103.478 150.507 103.899 150.359 104.203 150.031C104.781 149.414 105.512 148.084 105.226 145.426C105.166 144.876 104.823 144.414 104.348 144.25C102.569 143.643 97.5594 141.605 89.0558 135.693Z" stroke="black" stroke-width="0.126537" stroke-miterlimit="10"/>
<path d="M89.6731 94.0158C89.6731 94.0158 89.4384 91.8609 90.642 91.5258C91.5327 91.2778 108.094 111.634 109.599 115.321L110.502 116.661C110.502 116.661 105.386 128.056 101.775 131.407C98.1646 134.759 98.7664 134.088 98.7664 134.088L97.2619 135.094H93.5999C93.5999 135.094 91.2438 137.44 90.9429 138.445C90.642 139.451 90.0402 146.824 90.642 147.159C91.2438 147.494 91.8035 147.159 91.8035 147.159C91.8035 147.159 92.7092 148.127 93.4825 147.306C94.2559 146.485 94.8577 145.818 94.8577 145.818L95.5227 145.316L95.4595 146.824C95.4595 146.824 96.1124 148.114 97.1385 147.638L98.1676 147.159C98.1676 147.159 98.4685 148.499 99.6721 148.164C100.876 147.829 101.784 144.143 102.534 143.975C103.283 143.807 105.088 141.797 105.991 140.791L106.894 139.786C106.894 139.786 116.523 132.748 122.842 119.677C122.842 119.677 125.55 115.656 118.629 105.937C111.708 96.2177 101.177 77.1148 90.9459 71.4174C90.9459 71.4174 86.1314 68.4012 81.9188 68.4012L79.4453 87.6482L89.6761 94.0158H89.6731Z" fill="#F8A98C"/>
<mask id="mask10_2300_2" style="mask-type:luminance" maskUnits="userSpaceOnUse" x="79" y="68" width="45" height="81">
<path d="M89.6731 94.0159C89.6731 94.0159 89.4384 91.861 90.642 91.5258C91.5327 91.2778 108.094 111.634 109.599 115.321L110.502 116.661C110.502 116.661 105.386 128.056 101.775 131.407C98.1646 134.759 98.7664 134.088 98.7664 134.088L97.2619 135.094H93.5999C93.5999 135.094 91.2438 137.44 90.9429 138.445C90.642 139.451 90.0402 146.824 90.642 147.159C91.2438 147.494 91.8035 147.159 91.8035 147.159C91.8035 147.159 92.7092 148.127 93.4825 147.306C94.2559 146.485 94.8577 145.818 94.8577 145.818L95.5227 145.316L95.4595 146.824C95.4595 146.824 96.1124 148.114 97.1385 147.638L98.1676 147.159C98.1676 147.159 98.4685 148.499 99.6721 148.164C100.876 147.829 101.784 144.143 102.534 143.975C103.283 143.808 105.088 141.797 105.991 140.791L106.894 139.786C106.894 139.786 116.523 132.748 122.842 119.677C122.842 119.677 125.55 115.656 118.629 105.937C111.708 96.2178 101.177 77.1149 90.9459 71.4175C90.9459 71.4175 86.1314 68.4012 81.9188 68.4012L79.4453 87.6483L89.6761 94.0159H89.6731Z" fill="white"/>
</mask>
<g mask="url(#mask10_2300_2)">
<path d="M83.7222 89.8502C83.7222 89.8502 85.6781 91.0232 90.4926 93.7043C95.307 96.3854 92.3732 98.0377 92.3732 98.0377L86.5417 102.314L82.666 94.703L83.7192 89.8502" fill="#EF8A79"/>
<path d="M89.5215 92.1995C89.5215 92.1995 90.5355 89.8938 91.1163 90.1217C91.697 90.3496 109.751 107.777 111.256 115.485C112.76 123.193 103.432 132.912 97.2638 135.091L89.5215 92.1962V92.1995Z" fill="#EF8A79"/>
<path d="M98.6181 101.748C98.6181 101.748 101.149 95.8667 110.266 91.4361L107.119 89.9012L101.404 93.705L98.919 97.0564L96.5117 100.743L98.6181 101.748Z" fill="#EF8A79"/>
<path d="M106.893 139.786C106.893 139.786 104.034 142.357 102.83 142.665C101.627 142.973 100.724 146.992 99.6709 148.165C98.6178 149.338 97.7812 148.832 97.7812 148.832L99.7612 149.582L104.633 146.992L106.89 142.987V139.786" fill="#EF8A79"/>
<path d="M92.0492 147.535C92.5126 145.661 92.979 143.788 93.4424 141.914C93.5206 141.603 93.0843 141.468 93.0061 141.78C92.5427 143.654 92.0763 145.527 91.6129 147.4C91.5346 147.712 91.9709 147.846 92.0492 147.535Z" fill="#EF8A79"/>
<path d="M98.0274 148.446C98.3102 146.854 98.8699 145.346 99.6764 143.995C99.8388 143.724 99.4477 143.473 99.2852 143.741C98.4577 145.125 97.88 146.68 97.5911 148.312C97.5339 148.627 97.9702 148.764 98.0274 148.446Z" fill="#EF8A79"/>
<path d="M97.9159 135.037C98.8216 135.305 99.7364 135.55 100.636 135.848C101.536 136.147 102.168 136.834 102.863 137.514C104.033 138.657 105.429 139.82 105.965 141.515C106.155 142.122 107.027 141.861 106.835 141.247C106.239 139.354 104.813 138.08 103.501 136.8C102.788 136.103 102.113 135.362 101.205 134.997C100.221 134.602 99.1646 134.367 98.1536 134.069C97.5909 133.901 97.3532 134.873 97.9129 135.037H97.9159Z" fill="#EF8A79"/>
<path d="M106.052 141.666C105.964 140.718 105.411 140.115 104.848 139.458C104.219 138.72 103.999 137.722 103.271 137.075C101.74 135.714 100.052 134.397 98.1649 133.744C97.6082 133.549 97.3705 134.521 97.9242 134.712C99.6303 135.305 101.105 136.505 102.519 137.692C102.892 138.003 103.142 138.322 103.349 138.787C103.524 139.18 103.708 139.535 103.963 139.87C104.367 140.396 105.083 140.929 105.152 141.673C105.212 142.31 106.115 142.316 106.055 141.673L106.052 141.666Z" fill="#EF8A79"/>
<path d="M83.6536 65.6769C83.6536 65.6769 88.1491 82.2931 83.3768 91.4323C78.6044 100.572 80.8131 87.91 80.8131 87.91L81.9144 78.1172L80.8131 69.0685L83.6506 65.6735L83.6536 65.6769Z" fill="#EF8A79"/>
</g>
<path d="M89.6731 94.0158C89.6731 94.0158 89.4384 91.8609 90.642 91.5258C91.5327 91.2778 108.094 111.634 109.599 115.321L110.502 116.661C110.502 116.661 105.386 128.056 101.775 131.407C98.1646 134.759 98.7664 134.088 98.7664 134.088L97.2619 135.094H93.5999C93.5999 135.094 91.2438 137.44 90.9429 138.445C90.642 139.451 90.0402 146.824 90.642 147.159C91.2438 147.494 91.8035 147.159 91.8035 147.159C91.8035 147.159 92.7092 148.127 93.4825 147.306C94.2559 146.485 94.8577 145.818 94.8577 145.818L95.5227 145.316L95.4595 146.824C95.4595 146.824 96.1124 148.114 97.1385 147.638L98.1676 147.159C98.1676 147.159 98.4685 148.499 99.6721 148.164C100.876 147.829 101.784 144.143 102.534 143.975C103.283 143.807 105.088 141.797 105.991 140.791L106.894 139.786C106.894 139.786 116.523 132.748 122.842 119.677C122.842 119.677 125.55 115.656 118.629 105.937C111.708 96.2177 101.177 77.1148 90.9459 71.4174C90.9459 71.4174 86.1314 68.4012 81.9188 68.4012L79.4453 87.6482L89.6761 94.0158H89.6731Z" stroke="black" stroke-width="0.126537" stroke-miterlimit="10"/>
<path d="M83.4203 68.2664C83.4203 68.2664 83.4805 66.7783 78.2056 67.9949C78.2056 67.9949 78.2658 82.8315 77.7031 87.1682C77.7031 87.1682 79.5086 91.1899 83.7212 89.8493C83.7212 89.8493 85.9178 77.4391 83.4203 68.2664Z" fill="#0F5712" stroke="black" stroke-width="0.126537" stroke-miterlimit="10"/>
<path d="M83.3608 39.009C83.3608 39.009 93.1403 69.7212 94.9186 79.4938C96.697 89.2665 84.7781 109.931 76.428 99.2871C68.0779 88.6398 78.0559 79.028 78.3387 74.6812C78.6216 70.3345 71.9024 57.6428 72.6637 55.213C73.425 52.7832 75.7901 41.3718 75.7901 41.3718L83.3608 39.0124V39.009Z" fill="#121212"/>
<path d="M3.37978 177.321C3.37978 177.321 -0.832882 183.018 3.98159 195.083C8.79607 207.148 25.6467 238.986 25.6467 238.986C25.6467 238.986 39.7893 230.943 48.2146 215.862C48.2146 215.862 9.09697 195.418 4.5834 186.035C0.0698316 176.651 3.37978 177.321 3.37978 177.321Z" fill="#99102F"/>
<mask id="mask11_2300_2" style="mask-type:luminance" maskUnits="userSpaceOnUse" x="1" y="177" width="48" height="62">
<path d="M3.38369 177.321C3.38369 177.321 -0.828976 183.018 3.9855 195.083C8.79998 207.148 25.6506 238.986 25.6506 238.986C25.6506 238.986 39.7932 230.943 48.2185 215.862C48.2185 215.862 9.10088 195.418 4.58731 186.034C0.0737379 176.651 3.38369 177.321 3.38369 177.321Z" fill="white"/>
</mask>
<g mask="url(#mask11_2300_2)">
<path d="M3.76758 188.82C3.76758 188.82 12.3584 217.595 24.9483 227.371C24.9483 227.371 10.6222 207.859 3.76758 188.82Z" fill="#88102F"/>
<path d="M4.72656 188.82C4.72656 188.82 10.1519 198.268 15.2673 201.284C15.2673 201.284 6.21905 189.758 4.72656 188.82Z" fill="#88102F"/>
</g>
<path d="M3.37978 177.321C3.37978 177.321 -0.832882 183.018 3.98159 195.083C8.79607 207.148 25.6467 238.986 25.6467 238.986C25.6467 238.986 39.7893 230.943 48.2146 215.862C48.2146 215.862 9.09697 195.418 4.5834 186.035C0.0698316 176.651 3.37978 177.321 3.37978 177.321Z" stroke="black" stroke-width="0.126537" stroke-miterlimit="10"/>
<path d="M60.3697 30.7345C57.6585 32.3365 55.7538 35.1785 55.0708 38.4528C54.3877 41.7271 53.4338 47.2569 53.6294 51.9455C53.9303 59.1577 56.3376 62.7034 58.7448 64.3993C62.0397 66.7218 69.5774 66.3665 74.9937 59.1543C80.41 51.9421 80.109 48.011 80.7109 44.0764C81.3127 40.1419 79.2063 33.2615 75.8964 30.6374C73.4019 28.66 65.9515 27.4301 60.3697 30.7312V30.7345Z" fill="#F8A98C"/>
<mask id="mask12_2300_2" style="mask-type:luminance" maskUnits="userSpaceOnUse" x="53" y="28" width="28" height="38">
<path d="M60.3677 30.7345C57.6566 32.3364 55.7519 35.1784 55.0688 38.4527C54.3858 41.727 53.4319 47.2568 53.6275 51.9454C53.9284 59.1576 56.3356 62.7034 58.7429 64.3992C62.0378 66.7217 69.5754 66.3665 74.9917 59.1543C80.408 51.9421 80.1071 48.0109 80.7089 44.0764C81.3107 40.1418 79.2044 33.2614 75.8944 30.6373C73.3999 28.66 65.9495 27.43 60.3677 30.7311V30.7345Z" fill="white"/>
</mask>
<g mask="url(#mask12_2300_2)">
<path d="M54.6504 38.3824C54.6504 38.3824 57.9904 37.7355 59.7959 39.4112C61.6013 41.0869 65.7748 41.8577 68.6545 41.1372C68.6545 41.1372 71.474 40.9328 72.7077 43.0207C73.9414 45.1086 77.4229 46.5061 79.2915 45.809C81.1601 45.1119 82.123 43.8585 82.123 43.8585L81.1571 40.0882L77.7027 37.94L68.6575 35.5337L67.5803 35.2823L64.6134 33.7172L56.8199 34.984L54.9844 35.7281L54.6534 38.3857L54.6504 38.3824Z" fill="#EF8A79"/>
<path d="M79.1135 47.1832C79.1135 47.1832 78.2619 56.6006 71.8858 62.4186C65.5096 68.2366 73.1195 65.6795 73.1195 65.6795L82.3633 59.523L83.5669 51.1445L83.3924 47.153L79.1105 47.1865" fill="#EF8A79"/>
</g>
<path d="M60.3697 30.7345C57.6585 32.3365 55.7538 35.1785 55.0708 38.4528C54.3877 41.7271 53.4338 47.2569 53.6294 51.9455C53.9303 59.1577 56.3376 62.7034 58.7448 64.3993C62.0397 66.7218 69.5774 66.3665 74.9937 59.1543C80.41 51.9421 80.109 48.011 80.7109 44.0764C81.3127 40.1419 79.2063 33.2615 75.8964 30.6374C73.4019 28.66 65.9515 27.4301 60.3697 30.7312V30.7345Z" stroke="black" stroke-width="0.126537" stroke-miterlimit="10"/>
<path d="M58.0633 88.844C58.0633 88.844 52.8547 71.8893 52.1897 71.4871C51.5247 71.0849 41.5948 75.4384 38.5858 78.4547C35.5767 81.4709 18.726 114.65 16.9206 120.347C15.2837 125.515 8.94062 141.99 6.65374 155.265C6.19636 157.916 5.54941 160.517 4.69183 163.04C4.45111 163.748 4.20738 164.502 3.9817 165.256C3.07899 168.272 1.57447 167.937 1.57447 176.315C1.57447 184.694 0.972656 188.38 0.972656 188.38C0.972656 188.38 2.17628 189.721 3.07899 187.71C3.9817 185.699 4.28261 182.683 4.28261 182.683L4.88442 177.656C4.88442 177.656 5.48623 182.348 5.18532 183.688C4.88442 185.029 4.58351 186.034 4.58351 186.034L6.08804 187.375C6.08804 187.375 9.9998 183.353 10.9025 181.007C11.8052 178.661 12.407 175.98 12.407 175.645C12.407 175.31 14.2125 174.975 13.9116 176.65C13.6107 178.326 12.407 181.677 12.407 181.677C12.407 181.677 12.407 183.353 13.6107 182.348C14.8143 181.342 15.4161 180.002 16.0179 178.996C16.6197 177.991 16.0179 172.964 13.9116 169.277C11.8052 165.591 15.4161 158.553 15.4161 158.553C15.4161 158.553 22.9267 135.908 25.3399 130.14C27.7532 124.372 28.2737 123.93 29.5165 121.972C30.672 120.156 40.8486 103.878 44.2398 96.4483C44.7393 95.3557 45.7533 94.7156 46.8516 94.7122C47.7483 94.7122 48.311 94.2296 48.8135 93.8744C52.1235 91.5284 55.1325 89.1825 55.1325 89.1825L58.1415 88.8473H58.0603L58.0633 88.844Z" fill="#F8A98C"/>
<mask id="mask13_2300_2" style="mask-type:luminance" maskUnits="userSpaceOnUse" x="0" y="71" width="59" height="118">
<path d="M58.0653 88.844C58.0653 88.844 52.8566 71.8893 52.1916 71.4872C51.5266 71.085 41.5968 75.4385 38.5877 78.4547C35.5787 81.471 18.728 114.65 16.9226 120.347C15.2856 125.515 8.94257 141.99 6.65569 155.265C6.19832 157.916 5.55137 160.517 4.69379 163.04C4.45306 163.748 4.20934 164.502 3.98366 165.256C3.08094 168.272 1.57642 167.937 1.57642 176.315C1.57642 184.694 0.974609 188.38 0.974609 188.38C0.974609 188.38 2.17823 189.721 3.08094 187.71C3.98366 185.699 4.28456 182.683 4.28456 182.683L4.88637 177.656C4.88637 177.656 5.48818 182.348 5.18728 183.688C4.88637 185.029 4.58547 186.034 4.58547 186.034L6.08999 187.375C6.08999 187.375 10.0018 183.353 10.9045 181.007C11.8072 178.661 12.409 175.98 12.409 175.645C12.409 175.31 14.2144 174.975 13.9135 176.65C13.6126 178.326 12.409 181.678 12.409 181.678C12.409 181.678 12.409 183.353 13.6126 182.348C14.8162 181.342 15.418 180.002 16.0198 178.996C16.6217 177.991 16.0198 172.964 13.9135 169.277C11.8072 165.591 15.418 158.553 15.418 158.553C15.418 158.553 22.9286 135.908 25.3419 130.14C27.7551 124.372 28.2757 123.93 29.5184 121.973C30.6739 120.156 40.8505 103.878 44.2417 96.4483C44.7412 95.3558 45.7553 94.7157 46.8536 94.7123C47.7503 94.7123 48.3129 94.2297 48.8155 93.8745C52.1254 91.5285 55.1345 89.1825 55.1345 89.1825L58.1435 88.8474H58.0623L58.0653 88.844Z" fill="white"/>
</mask>
<g mask="url(#mask13_2300_2)">
<path d="M48.0684 94.3737C48.0684 94.3737 56.4425 89.3433 53.608 82.6439C50.7735 75.9444 49.6752 68.4005 49.6752 68.4005C49.6752 68.4005 54.0744 71.0011 54.2309 71.4603C54.3874 71.9194 59.5358 89.3969 59.5358 89.3969L54.0865 93.0332L51.3693 92.0244" fill="#EF8A79"/>
<path d="M51.3791 93.368C51.3791 93.368 46.1042 93.2875 44.7592 94.0383C41.7501 95.714 31.8203 115.487 27.6076 122.86C20.3949 135.485 14.0248 152.362 13.2815 166.234C13.1642 168.439 51.3791 144.309 51.3791 144.309L50.1363 125.92L46.8595 97.0545" fill="#EF8A79"/>
<path d="M40.5476 105.768C40.5476 105.768 39.043 98.0602 24.5996 95.7142L28.2105 93.7034L35.709 95.1411L40.5476 98.7305L42.8104 103.815L40.5476 105.768Z" fill="#EF8A79"/>
<path d="M0.524496 189.888C0.524496 189.888 4.43626 187.542 4.88762 177.656L3.76825 188.819H2.688L0.521484 189.888H0.524496Z" fill="#EF8A79"/>
<path d="M13.6152 182.348C13.6152 182.348 15.3093 179.781 16.191 176.624C17.0726 173.467 19.182 179.834 19.182 179.834L17.6774 182.515L13.6152 182.348Z" fill="#EF8A79"/>
<path d="M5.15197 187.335C5.85608 187.258 6.14495 186.537 6.40673 185.897C6.80694 184.922 7.21316 183.953 7.59832 182.971C8.31147 181.145 8.90726 179.198 8.54617 177.187C8.489 176.868 8.05268 177.002 8.10986 177.321C8.43483 179.131 7.89922 180.924 7.26431 182.576C6.9604 183.367 6.63241 184.144 6.31345 184.928C6.163 185.297 6.01857 185.669 5.85909 186.034C5.71767 186.359 5.51606 186.795 5.15498 186.835C4.86912 186.866 4.86611 187.372 5.15498 187.338L5.15197 187.335Z" fill="#EF8A79"/>
</g>
<path d="M58.0633 88.844C58.0633 88.844 52.8547 71.8893 52.1897 71.4871C51.5247 71.0849 41.5948 75.4384 38.5858 78.4547C35.5767 81.4709 18.726 114.65 16.9206 120.347C15.2837 125.515 8.94062 141.99 6.65374 155.265C6.19636 157.916 5.54941 160.517 4.69183 163.04C4.45111 163.748 4.20738 164.502 3.9817 165.256C3.07899 168.272 1.57447 167.937 1.57447 176.315C1.57447 184.694 0.972656 188.38 0.972656 188.38C0.972656 188.38 2.17628 189.721 3.07899 187.71C3.9817 185.699 4.28261 182.683 4.28261 182.683L4.88442 177.656C4.88442 177.656 5.48623 182.348 5.18532 183.688C4.88442 185.029 4.58351 186.034 4.58351 186.034L6.08804 187.375C6.08804 187.375 9.9998 183.353 10.9025 181.007C11.8052 178.661 12.407 175.98 12.407 175.645C12.407 175.31 14.2125 174.975 13.9116 176.65C13.6107 178.326 12.407 181.677 12.407 181.677C12.407 181.677 12.407 183.353 13.6107 182.348C14.8143 181.342 15.4161 180.002 16.0179 178.996C16.6197 177.991 16.0179 172.964 13.9116 169.277C11.8052 165.591 15.4161 158.553 15.4161 158.553C15.4161 158.553 22.9267 135.908 25.3399 130.14C27.7532 124.372 28.2737 123.93 29.5165 121.972C30.672 120.156 40.8486 103.878 44.2398 96.4483C44.7393 95.3557 45.7533 94.7156 46.8516 94.7122C47.7483 94.7122 48.311 94.2296 48.8135 93.8744C52.1235 91.5284 55.1325 89.1825 55.1325 89.1825L58.1415 88.8473H58.0603L58.0633 88.844Z" stroke="black" stroke-width="0.126537" stroke-miterlimit="10"/>
<path d="M75.2958 132.077C75.2958 132.077 66.705 126.692 65.5826 126.869C64.4603 127.047 63.5605 127.751 63.5605 126.728C63.5605 125.706 65.6729 120.833 65.6729 120.833L69.4643 114.037C69.4643 114.037 71.3841 113.467 71.3841 118.079C71.3841 122.69 74.3931 124.031 74.9949 124.366C75.5967 124.701 80.6098 127.687 80.6098 127.687L81.6058 130.137L76.3249 132.349" fill="#062C43"/>
<mask id="mask14_2300_2" style="mask-type:luminance" maskUnits="userSpaceOnUse" x="63" y="114" width="19" height="19">
<path d="M75.2939 132.077C75.2939 132.077 66.703 126.692 65.5807 126.869C64.4583 127.047 63.5586 127.751 63.5586 126.728C63.5586 125.706 65.6709 120.833 65.6709 120.833L69.4623 114.037C69.4623 114.037 71.3821 113.467 71.3821 118.079C71.3821 122.69 74.3912 124.031 74.993 124.366C75.5948 124.701 80.6078 127.687 80.6078 127.687L81.6038 130.137L76.323 132.349" fill="white"/>
</mask>
<g mask="url(#mask14_2300_2)">
<path d="M67.8911 118.796C67.8911 118.796 67.5421 122.941 68.9353 124.242C70.3285 125.542 74.5472 127.218 74.5472 127.218L77.499 130.103L73.4097 132.352L65.3304 130.784L61.1328 127.221L67.8911 118.799V118.796Z" fill="#002535"/>
</g>
<path d="M75.2958 132.077C75.2958 132.077 66.705 126.692 65.5826 126.869C64.4603 127.047 63.5605 127.751 63.5605 126.728C63.5605 125.706 65.6729 120.833 65.6729 120.833L69.4643 114.037C69.4643 114.037 71.3841 113.467 71.3841 118.079C71.3841 122.69 74.3931 124.031 74.9949 124.366C75.5967 124.701 80.6098 127.687 80.6098 127.687L81.6058 130.137L76.3249 132.349" stroke="black" stroke-width="0.126537" stroke-miterlimit="10"/>
<path d="M69.4584 114.04C69.1395 114.158 68.8777 114.419 68.7062 114.744C67.7252 116.601 63.7352 124.215 63.4674 126.025C63.1635 128.089 64.1264 127.057 65.0171 126.025C65.9077 124.993 68.3511 119.486 69.2658 117.077C70.0512 115.012 70.328 113.725 69.4554 114.04H69.4584Z" fill="#002535" stroke="black" stroke-width="0.126537" stroke-miterlimit="10"/>
<path d="M73.1211 139.372C76.7251 138.687 79.273 135.691 78.8119 132.681C78.3509 129.67 75.0555 127.785 71.4514 128.47C67.8474 129.154 65.2995 132.15 65.7606 135.16C66.2217 138.171 69.5171 140.056 73.1211 139.372Z" fill="#FECF1B" stroke="black" stroke-width="0.126537" stroke-miterlimit="10"/>
<path d="M55.7392 70.4115C55.7392 70.4115 55.4563 69.1581 50.6328 71.4605C50.6328 71.4605 54.5416 85.3553 54.9899 89.1122C54.9899 89.1122 57.8094 91.8872 61.1374 87.0143C61.1374 87.0143 60.2527 77.4494 55.7392 70.4115Z" fill="#0F5712"/>
<mask id="mask15_2300_2" style="mask-type:luminance" maskUnits="userSpaceOnUse" x="50" y="70" width="12" height="20">
<path d="M55.7411 70.4114C55.7411 70.4114 55.4583 69.158 50.6348 71.4604C50.6348 71.4604 54.5435 85.3553 54.9919 89.1122C54.9919 89.1122 57.8113 91.8871 61.1394 87.0142C61.1394 87.0142 60.2547 77.4493 55.7411 70.4114Z" fill="white"/>
</mask>
<g mask="url(#mask15_2300_2)">
<path d="M40.8457 81.6386C40.8457 81.6386 53.0985 71.5375 67.5841 74.7448C82.0697 77.952 51.8949 65.6759 51.8949 65.6759L40.9089 68.4006L40.8457 81.6386Z" fill="#0F4612"/>
</g>
<path d="M55.7392 70.4115C55.7392 70.4115 55.4563 69.1581 50.6328 71.4605C50.6328 71.4605 54.5416 85.3553 54.9899 89.1122C54.9899 89.1122 57.8094 91.8872 61.1374 87.0143C61.1374 87.0143 60.2527 77.4494 55.7392 70.4115Z" stroke="black" stroke-width="0.126537" stroke-miterlimit="10"/>
<path d="M88.2354 136.098C88.2354 136.098 78.3055 132.077 76.1992 113.979C74.0929 95.8817 68.0748 95.8817 65.3666 100.909C65.3666 100.909 64.6595 106.05 69.829 103.814C74.9986 101.579 71.493 123.842 75.802 130.14C80.1109 136.437 85.5272 139.45 85.5272 139.45C85.5272 139.45 86.7309 140.455 88.2354 136.098Z" fill="#E67325"/>
<mask id="mask16_2300_2" style="mask-type:luminance" maskUnits="userSpaceOnUse" x="65" y="98" width="24" height="42">
<path d="M88.2373 136.098C88.2373 136.098 78.3075 132.077 76.2011 113.979C74.0948 95.8817 68.0767 95.8817 65.3686 100.909C65.3686 100.909 64.6614 106.05 69.831 103.814C75.0005 101.579 71.495 123.842 75.8039 130.14C80.1129 136.437 85.5292 139.45 85.5292 139.45C85.5292 139.45 86.7328 140.455 88.2373 136.098Z" fill="white"/>
</mask>
<g mask="url(#mask16_2300_2)">
<path d="M63.5611 103.814C63.5611 103.814 65.517 99.0653 69.826 99.9903C74.8751 101.073 75.1429 119.174 77.7006 127.217C80.2583 135.26 84.471 137.623 88.2323 138.789C91.9936 139.956 87.48 146.32 87.48 146.32L73.6866 142.985L65.3304 129.717L66.0315 108.308L61.1328 102.252L63.5581 103.811L63.5611 103.814Z" fill="#E65D25"/>
</g>
<path d="M88.2354 136.098C88.2354 136.098 78.3055 132.077 76.1992 113.979C74.0929 95.8817 68.0748 95.8817 65.3666 100.909C65.3666 100.909 64.6595 106.05 69.829 103.814C74.9986 101.579 71.493 123.842 75.802 130.14C80.1109 136.437 85.5272 139.45 85.5272 139.45C85.5272 139.45 86.7309 140.455 88.2354 136.098Z" stroke="black" stroke-width="0.126537" stroke-miterlimit="10"/>
<path d="M67.172 120.012C67.172 120.012 67.3104 122.442 65.1349 123.575C65.1349 123.575 59.9503 119.134 58.1449 118.233C57.2782 117.8 56.4808 118.192 55.5841 118.42C53.4568 118.963 51.5159 116.889 51.9552 114.506C52.2261 113.041 53.2551 111.624 56.3394 111.965C56.3394 111.965 61.4548 113.641 67.172 120.009V120.012Z" fill="#E67325"/>
<mask id="mask17_2300_2" style="mask-type:luminance" maskUnits="userSpaceOnUse" x="51" y="111" width="17" height="13">
<path d="M67.172 120.012C67.172 120.012 67.3104 122.442 65.1349 123.575C65.1349 123.575 59.9503 119.134 58.1449 118.232C57.2782 117.8 56.4808 118.192 55.5841 118.42C53.4568 118.963 51.5159 116.889 51.9552 114.506C52.2261 113.041 53.2551 111.624 56.3394 111.965C56.3394 111.965 61.4548 113.641 67.172 120.009V120.012Z" fill="white"/>
</mask>
<g mask="url(#mask17_2300_2)">
<path d="M52.4338 120.605C52.4338 120.605 51.0677 114.509 54.2332 113.993C57.3987 113.477 61.8311 117.321 62.6224 117.743C63.4138 118.165 67.3677 121.567 67.3677 121.567L66.7087 124.637L65.0237 126.021L60.1039 120.602H52.4338V120.605Z" fill="#E65D25"/>
</g>
<path d="M67.172 120.012C67.172 120.012 67.3104 122.442 65.1349 123.575C65.1349 123.575 59.9503 119.134 58.1449 118.233C57.2782 117.8 56.4808 118.192 55.5841 118.42C53.4568 118.963 51.5159 116.889 51.9552 114.506C52.2261 113.041 53.2551 111.624 56.3394 111.965C56.3394 111.965 61.4548 113.641 67.172 120.009V120.012Z" stroke="black" stroke-width="0.126537" stroke-miterlimit="10"/>
<path d="M95.7578 97.5577C95.7578 97.5577 101.656 90.0841 106.229 87.4533C106.229 87.4533 103.482 83.5054 102.931 82.9926C102.381 82.4798 106.894 83.817 108.098 84.8224C109.302 85.8279 108.703 91.0225 108.703 91.0225C108.703 91.0225 102.646 93.0266 98.3005 99.9841C98.3005 99.9841 97.5663 100.239 95.7608 97.5577H95.7578Z" fill="#FECF1B"/>
<mask id="mask18_2300_2" style="mask-type:luminance" maskUnits="userSpaceOnUse" x="95" y="82" width="14" height="18">
<path d="M95.7559 97.5578C95.7559 97.5578 101.654 90.0842 106.227 87.4534C106.227 87.4534 103.48 83.5054 102.929 82.9927C102.379 82.4799 106.892 83.8171 108.096 84.8225C109.3 85.8279 108.701 91.0226 108.701 91.0226C108.701 91.0226 102.644 93.0267 98.2985 99.9842C98.2985 99.9842 97.5643 100.239 95.7589 97.5578H95.7559Z" fill="white"/>
</mask>
<g mask="url(#mask18_2300_2)">
<path d="M93.7707 86.4713C93.7707 86.4713 108.13 104.817 112.099 108.309C116.068 111.801 98.7657 111.915 98.7657 111.915L86.543 103.811L93.7707 86.4679V86.4713Z" fill="#FEBE1B"/>
</g>
<path d="M95.7578 97.5577C95.7578 97.5577 101.656 90.0841 106.229 87.4533C106.229 87.4533 103.482 83.5054 102.931 82.9926C102.381 82.4798 106.894 83.817 108.098 84.8224C109.302 85.8279 108.703 91.0225 108.703 91.0225C108.703 91.0225 102.646 93.0266 98.3005 99.9841C98.3005 99.9841 97.5663 100.239 95.7608 97.5577H95.7578Z" stroke="black" stroke-width="0.126537" stroke-miterlimit="10"/>
<path d="M42.8059 99.3673C42.8059 99.3673 38.867 93.0466 30.7516 91.7831L33.6283 86.4712C33.6283 86.4712 28.0555 88.1737 26.551 91.8602C26.551 91.8602 26.2501 95.2116 27.4537 95.8819C28.6573 96.5522 36.7848 96.6628 40.3956 103.815C40.3956 103.815 41.9092 102.856 42.8059 99.3707V99.3673Z" fill="#FECF1B"/>
<mask id="mask19_2300_2" style="mask-type:luminance" maskUnits="userSpaceOnUse" x="26" y="86" width="17" height="18">
<path d="M42.8078 99.3673C42.8078 99.3673 38.869 93.0465 30.7536 91.7831L33.6302 86.4711C33.6302 86.4711 28.0575 88.1736 26.553 91.8602C26.553 91.8602 26.2521 95.2116 27.4557 95.8818C28.6593 96.5521 36.7867 96.6627 40.3976 103.815C40.3976 103.815 41.9111 102.856 42.8078 99.3706V99.3673Z" fill="white"/>
</mask>
<g mask="url(#mask19_2300_2)">
<path d="M35.707 103.814L42.8084 91.4343L44.7582 105.768L35.707 117.746V103.814Z" fill="#FEBE1B"/>
</g>
<path d="M42.8059 99.3673C42.8059 99.3673 38.867 93.0466 30.7516 91.7831L33.6283 86.4712C33.6283 86.4712 28.0555 88.1737 26.551 91.8602C26.551 91.8602 26.2501 95.2116 27.4537 95.8819C28.6573 96.5522 36.7848 96.6628 40.3956 103.815C40.3956 103.815 41.9092 102.856 42.8059 99.3707V99.3673Z" stroke="black" stroke-width="0.126537" stroke-miterlimit="10"/>
<path d="M4.64393 163.188C4.64393 163.188 6.92779 166.865 13.2799 165.222L13.2167 166.426C13.2167 166.426 8.07424 168.064 4.22266 164.482L4.64393 163.188Z" fill="#FECF1B" stroke="black" stroke-width="0.126537" stroke-miterlimit="10"/>
<path d="M98.7656 134.088C98.7656 134.088 103.279 135.764 105.987 140.791L106.89 139.785C106.89 139.785 104.901 135.506 99.7255 133.29L98.7656 134.088Z" fill="#FECF1B" stroke="black" stroke-width="0.126537" stroke-miterlimit="10"/>
<path d="M76.6901 12.7611C76.6901 12.7611 80.4123 11.0921 81.0141 6.73526C81.6159 2.37845 81.9168 0.702759 81.9168 0.702759H82.8466C82.8466 0.702759 88.8136 22.3159 83.1084 26.4213C77.4032 30.5268 76.5547 19.7755 76.5547 19.7755L76.6931 12.7577L76.6901 12.7611Z" fill="#FECF1B"/>
<mask id="mask20_2300_2" style="mask-type:luminance" maskUnits="userSpaceOnUse" x="76" y="0" width="10" height="28">
<path d="M76.6901 12.7611C76.6901 12.7611 80.4123 11.0921 81.0141 6.73526C81.6159 2.37845 81.9168 0.702759 81.9168 0.702759H82.8466C82.8466 0.702759 88.8136 22.3159 83.1084 26.4213C77.4032 30.5268 76.5547 19.7755 76.5547 19.7755L76.6931 12.7577L76.6901 12.7611Z" fill="white"/>
</mask>
<g mask="url(#mask20_2300_2)">
<path d="M77.2521 21.9841C77.2521 21.9841 82.3675 14.2759 82.9693 10.9245C83.5711 7.57311 81.9161 0.702759 81.9161 0.702759L78.3895 7.44575L74.544 14.2759L72.1367 14.7551L76.551 21.7629L77.2521 21.9841Z" fill="#FEBE1B"/>
</g>
<path d="M76.6901 12.7611C76.6901 12.7611 80.4123 11.0921 81.0141 6.73526C81.6159 2.37845 81.9168 0.702759 81.9168 0.702759H82.8466C82.8466 0.702759 88.8136 22.3159 83.1084 26.4213C77.4032 30.5268 76.5547 19.7755 76.5547 19.7755L76.6931 12.7577L76.6901 12.7611Z" stroke="black" stroke-width="0.126537" stroke-miterlimit="10"/>
<path d="M70.4977 18.5084C70.4977 18.5084 74.2981 10.5555 80.8157 13.002C87.3333 15.4485 87.6794 30.8582 86.1297 33.8812C83.7225 38.5731 69.8809 37.9028 69.8809 37.9028L70.4977 19.7785V18.5084Z" fill="#121212"/>
<path d="M56.1113 35.4329C56.1113 35.4329 59.319 18.3475 72.288 17.4594C83.8307 16.6685 88.8377 38.5731 81.3151 49.2976C81.3151 49.2976 80.1115 36.2272 76.8015 36.2272C73.4916 36.2272 64.4644 34.2163 64.4644 34.2163L59.9509 33.8812L56.1113 35.4329Z" fill="#121212"/>
<path d="M73.4066 12.5331C71.0836 12.0974 63.1577 24.9164 61.5539 29.4006C59.9501 33.8848 63.26 35.222 63.26 35.222L65.9682 35.8922C65.9682 35.8922 71.878 15.2309 73.1357 15.003C74.3935 14.7751 74.0926 17.4596 74.0926 17.4596L76.1989 18.1299C76.1989 18.1299 75.7025 12.9687 73.4066 12.5331Z" fill="#FECF1B"/>
<mask id="mask21_2300_2" style="mask-type:luminance" maskUnits="userSpaceOnUse" x="61" y="12" width="16" height="24">
<path d="M73.4066 12.5329C71.0836 12.0973 63.1577 24.9163 61.5539 29.4005C59.9501 33.8846 63.26 35.2218 63.26 35.2218L65.9682 35.8921C65.9682 35.8921 71.878 15.2308 73.1357 15.0029C74.3935 14.775 74.0926 17.4595 74.0926 17.4595L76.1989 18.1298C76.1989 18.1298 75.7025 12.9686 73.4066 12.5329Z" fill="white"/>
</mask>
<g mask="url(#mask21_2300_2)">
<path d="M64.0137 37.0655C64.0137 37.0655 67.0227 19.6383 72.7399 14.504C72.7399 14.504 75.096 13.1098 75.424 17.8822C75.752 22.6545 73.6426 28.0168 73.6426 28.0168L64.0137 37.0655Z" fill="#FEBE1B"/>
</g>
<path d="M73.4066 12.5331C71.0836 12.0974 63.1577 24.9164 61.5539 29.4006C59.9501 33.8848 63.26 35.222 63.26 35.222L65.9682 35.8922C65.9682 35.8922 71.878 15.2309 73.1357 15.003C74.3935 14.7751 74.0926 17.4596 74.0926 17.4596L76.199 18.1299C76.199 18.1299 75.7025 12.9687 73.4066 12.5331Z" stroke="black" stroke-width="0.126537" stroke-miterlimit="10"/>
<path d="M78.028 54.6967C79.1775 54.2811 83.1103 52.4613 85.4514 46.3953C85.5145 46.2278 85.346 46.0702 85.2136 46.1741C84.6179 46.6467 83.5857 47.3505 82.9719 47.1226C82.1173 46.8042 86.1073 37.4974 86.5436 33.9349C86.5647 33.7606 86.3691 33.6601 86.2638 33.7941C85.5206 34.7258 83.685 36.8573 82.9719 36.063C82.3069 35.3223 82.4573 32.8859 82.5837 31.6559C82.6018 31.4716 82.3881 31.3811 82.2919 31.5353C81.4072 32.9294 79.2347 36.1904 78.7562 35.3961C78.3139 34.6554 78.5215 32.4603 78.6629 31.3543C78.687 31.1767 78.4854 31.0761 78.3801 31.2169C77.5045 32.3865 75.3831 35.0475 75.1424 33.7204C74.9016 32.3932 74.8535 28.6899 74.8445 27.2589C74.8445 27.0846 74.6399 27.0142 74.5496 27.1584C73.68 28.5693 71.1253 32.5977 70.6288 32.0447C70.1624 31.5252 70.2496 28.576 70.3128 27.2891C70.3219 27.1114 70.1173 27.031 70.024 27.1718C69.2055 28.4051 67.1172 31.5051 67.2075 30.999C67.2978 30.493 66.8916 24.7018 66.7592 22.8786C66.7471 22.7044 66.5425 22.6541 66.4613 22.8015C65.5405 24.5074 63.5786 30.1813 62.6578 31.2068C61.7371 32.2324 61.4331 28.7033 61.1623 26.3976C61.1382 26.1932 60.8704 26.1898 60.8434 26.3976C60.6508 27.8554 60.2867 29.997 59.7721 30.4461C59.6759 30.5332 59.5314 30.4662 59.5134 30.3288L58.7671 24.6314C58.74 24.427 58.4722 24.427 58.4482 24.6314C58.1743 26.9372 57.5665 31.6459 56.9797 33.2445C56.4652 34.6487 56.0289 30.7175 55.7912 27.8119C55.7731 27.5907 55.4812 27.5974 55.4692 27.8186C55.3428 30.8315 55.1502 35.4631 55.084 37.551C55.081 37.6817 55.1984 37.7722 55.3067 37.7186C55.9386 37.4103 57.8223 36.797 60.5816 38.5598C64.0149 40.7516 65.2185 40.0813 68.8294 40.0813C72.4402 40.0813 73.6348 44.0762 77.2216 45.0983C77.2427 45.105 77.2667 45.105 77.2908 45.1017L79.2166 44.7766C79.3219 44.7599 79.4152 44.857 79.4002 44.9743C79.2467 46.2613 78.4854 52.4513 77.8324 54.4655C77.7873 54.6029 77.9077 54.7403 78.034 54.6934L78.028 54.6967Z" fill="#FECF1B"/>
<mask id="mask22_2300_2" style="mask-type:luminance" maskUnits="userSpaceOnUse" x="55" y="22" width="32" height="33">
<path d="M78.028 54.6967C79.1775 54.2811 83.1103 52.4613 85.4514 46.3953C85.5145 46.2278 85.346 46.0702 85.2136 46.1741C84.6179 46.6467 83.5857 47.3505 82.9719 47.1226C82.1173 46.8042 86.1073 37.4974 86.5436 33.9349C86.5647 33.7606 86.3691 33.6601 86.2638 33.7941C85.5206 34.7258 83.685 36.8573 82.9719 36.063C82.3069 35.3223 82.4573 32.8859 82.5837 31.6559C82.6018 31.4716 82.3881 31.3811 82.2919 31.5353C81.4072 32.9294 79.2347 36.1904 78.7562 35.3961C78.3139 34.6554 78.5215 32.4603 78.6629 31.3543C78.687 31.1767 78.4854 31.0761 78.3801 31.2169C77.5045 32.3865 75.3831 35.0475 75.1424 33.7204C74.9016 32.3932 74.8535 28.6899 74.8445 27.2589C74.8445 27.0846 74.6399 27.0142 74.5496 27.1584C73.68 28.5693 71.1253 32.5977 70.6288 32.0447C70.1624 31.5252 70.2496 28.576 70.3128 27.2891C70.3219 27.1114 70.1173 27.031 70.024 27.1718C69.2055 28.4051 67.1172 31.5051 67.2075 30.999C67.2978 30.493 66.8916 24.7018 66.7592 22.8786C66.7471 22.7044 66.5425 22.6541 66.4613 22.8015C65.5405 24.5074 63.5786 30.1813 62.6578 31.2068C61.7371 32.2324 61.4331 28.7033 61.1623 26.3976C61.1382 26.1932 60.8704 26.1898 60.8434 26.3976C60.6508 27.8554 60.2867 29.997 59.7721 30.4461C59.6759 30.5332 59.5314 30.4662 59.5134 30.3288L58.7671 24.6314C58.74 24.427 58.4722 24.427 58.4482 24.6314C58.1743 26.9372 57.5665 31.6459 56.9797 33.2445C56.4652 34.6487 56.0289 30.7175 55.7912 27.8119C55.7731 27.5907 55.4812 27.5974 55.4692 27.8186C55.3428 30.8315 55.1502 35.4631 55.084 37.551C55.081 37.6817 55.1984 37.7722 55.3067 37.7186C55.9386 37.4103 57.8223 36.797 60.5816 38.5598C64.0149 40.7516 65.2185 40.0813 68.8294 40.0813C72.4402 40.0813 73.6348 44.0762 77.2216 45.0983C77.2427 45.105 77.2667 45.105 77.2908 45.1017L79.2166 44.7766C79.3219 44.7599 79.4152 44.857 79.4002 44.9743C79.2467 46.2613 78.4854 52.4513 77.8324 54.4655C77.7873 54.6029 77.9077 54.7403 78.034 54.6934L78.028 54.6967Z" fill="white"/>
</mask>
<g mask="url(#mask22_2300_2)">
<path d="M66.4512 54.1265C66.4512 54.1265 76.7752 47.35 82.5797 31.6521C88.3841 15.9542 92.341 24.2087 92.341 24.2087L97.6159 47.1824L88.9859 60.5243L70.4953 62.1632L66.4512 54.1265Z" fill="#FEBE1B"/>
<path d="M53.1773 36.5321C53.1773 36.5321 57.4893 34.7257 60.6879 36.398C63.8865 38.0703 65.3519 38.4725 68.2286 37.9363C71.1052 37.4001 71.7943 38.9685 75.363 41.3681C78.9318 43.7677 81.4895 43.8548 81.4895 43.8548L87.3571 42.4272L87.0562 40.7515C87.0562 40.7515 82.2959 44.9575 74.8966 38.6635C74.8966 38.6635 71.4633 36.7164 67.8043 36.7231C63.4081 36.7298 62.6498 36.0025 61.0009 35.3892C58.2927 34.3838 56.6107 33.8409 55.2837 34.3838C52.4251 35.5568 53.1773 35.1949 53.1773 35.1949V36.5287V36.5321Z" fill="#FEBE1B"/>
</g>
<path d="M78.028 54.6967C79.1775 54.2811 83.1103 52.4613 85.4514 46.3953C85.5145 46.2278 85.346 46.0702 85.2136 46.1741C84.6179 46.6467 83.5857 47.3505 82.9719 47.1226C82.1173 46.8042 86.1073 37.4974 86.5436 33.9349C86.5647 33.7606 86.3691 33.6601 86.2638 33.7941C85.5206 34.7258 83.685 36.8573 82.9719 36.063C82.3069 35.3223 82.4573 32.8859 82.5837 31.6559C82.6018 31.4716 82.3881 31.3811 82.2919 31.5353C81.4072 32.9294 79.2347 36.1904 78.7562 35.3961C78.3139 34.6554 78.5215 32.4603 78.6629 31.3543C78.687 31.1767 78.4854 31.0761 78.3801 31.2169C77.5045 32.3865 75.3831 35.0475 75.1424 33.7204C74.9016 32.3932 74.8535 28.6899 74.8445 27.2589C74.8445 27.0846 74.6399 27.0142 74.5496 27.1584C73.68 28.5693 71.1253 32.5977 70.6288 32.0447C70.1624 31.5252 70.2496 28.576 70.3128 27.2891C70.3219 27.1114 70.1173 27.031 70.024 27.1718C69.2055 28.4051 67.1172 31.5051 67.2075 30.999C67.2978 30.493 66.8915 24.7018 66.7592 22.8786C66.7471 22.7044 66.5425 22.6541 66.4613 22.8015C65.5405 24.5074 63.5786 30.1813 62.6578 31.2068C61.737 32.2324 61.4331 28.7033 61.1623 26.3976C61.1382 26.1932 60.8704 26.1898 60.8434 26.3976C60.6508 27.8554 60.2867 29.997 59.7721 30.4461C59.6759 30.5332 59.5314 30.4662 59.5134 30.3288L58.7671 24.6314C58.74 24.427 58.4722 24.427 58.4482 24.6314C58.1743 26.9372 57.5665 31.6459 56.9797 33.2445C56.4652 34.6487 56.0289 30.7175 55.7912 27.8119C55.7731 27.5907 55.4812 27.5974 55.4692 27.8186C55.3428 30.8315 55.1502 35.4631 55.084 37.551C55.081 37.6817 55.1984 37.7722 55.3067 37.7186C55.9386 37.4103 57.8223 36.797 60.5816 38.5598C64.0149 40.7516 65.2185 40.0813 68.8294 40.0813C72.4402 40.0813 73.6348 44.0762 77.2216 45.0983C77.2427 45.105 77.2667 45.105 77.2908 45.1017L79.2166 44.7766C79.3219 44.7599 79.4152 44.857 79.4002 44.9743C79.2467 46.2613 78.4854 52.4513 77.8324 54.4655C77.7873 54.6029 77.9077 54.7403 78.034 54.6934L78.028 54.6967Z" stroke="black" stroke-width="0.126537" stroke-miterlimit="10"/>
<path d="M72.9269 137.598C75.4872 137.283 77.4076 135.462 77.2161 133.53C77.0246 131.598 74.7938 130.288 72.2335 130.603C69.6732 130.917 67.7529 132.739 67.9444 134.67C68.1358 136.602 70.3666 137.913 72.9269 137.598Z" fill="#E67325"/>
<path d="M64.9165 30.0274L63.7129 31.7031L64.0589 33.8279L64.9165 31.9276V30.0274Z" fill="#FEBE1B"/>
<path d="M73.3403 32.7084L72.1367 34.0489L72.3714 35.8922L73.3403 34.7293V32.7084Z" fill="#FEBE1B"/>
<path d="M58.596 31.033L57.9941 32.3735L58.295 33.828L58.933 32.1758L58.596 31.033Z" fill="#FEBE1B"/>
<path d="M63.6133 46.8247C62.4187 49.7941 61.4107 52.8505 60.5922 55.974C60.5681 56.0612 60.6494 56.1617 60.7306 56.1282C61.6213 55.7662 62.4819 55.3339 63.3124 54.8278C63.4387 54.7508 63.3274 54.5329 63.198 54.61C62.3856 55.106 61.543 55.5316 60.6704 55.8869L60.8088 56.041C61.6213 52.9377 62.6203 49.9013 63.8059 46.9521C63.866 46.8046 63.6704 46.6773 63.6103 46.8247H63.6133Z" fill="black"/>
<path d="M59.5312 58.0246C59.5312 58.0246 65.751 57.9911 65.3327 59.7607C64.9144 61.5302 61.9054 61.4665 60.7018 60.8298C59.4982 60.193 59.5674 59.8813 59.5312 58.0246Z" fill="#99102F"/>
<mask id="mask23_2300_2" style="mask-type:luminance" maskUnits="userSpaceOnUse" x="59" y="58" width="7" height="4">
<path d="M59.5273 58.0246C59.5273 58.0246 65.7471 57.9911 65.3288 59.7606C64.9105 61.5301 61.9015 61.4665 60.6979 60.8297C59.4942 60.1929 59.5635 59.8813 59.5273 58.0246Z" fill="white"/>
</mask>
<g mask="url(#mask23_2300_2)">
<path d="M58.5577 62.7634C58.5577 62.7634 61.979 55.9534 67.3562 55.5579C72.7333 55.1624 69.8747 64.5229 69.8747 64.5229L58.7412 64.3989L58.5547 62.7634H58.5577Z" fill="#B42D00"/>
</g>
<path d="M59.5312 58.0246C59.5312 58.0246 65.751 57.9911 65.3327 59.7607C64.9144 61.5302 61.9054 61.4665 60.7018 60.8298C59.4982 60.193 59.5674 59.8813 59.5312 58.0246Z" stroke="black" stroke-width="0.126537" stroke-miterlimit="10"/>
</svg>
