<svg width="81" height="299" viewBox="0 0 81 299" fill="none" xmlns="http://www.w3.org/2000/svg">
<path d="M34.878 164.715C34.774 163.835 34.67 162.939 34.582 162.091C34.678 162.939 34.814 163.835 34.878 164.715Z" fill="#383838" stroke="#231F20" stroke-width="0.150815" stroke-miterlimit="10"/>
<path d="M34.7498 183.239C34.7498 183.439 34.7017 183.639 34.6777 183.823C34.7337 183.391 34.7818 182.951 34.8298 182.504C34.8138 182.719 34.8138 182.999 34.7498 183.239Z" fill="#383838" stroke="#231F20" stroke-width="0.150815" stroke-miterlimit="10"/>
<path d="M35.2285 178.528C35.2285 178.576 35.2285 178.616 35.2285 178.672L35.2765 178.056C35.2445 178.208 35.2365 178.368 35.2285 178.528Z" fill="#383838" stroke="#231F20" stroke-width="0.150815" stroke-miterlimit="10"/>
<path d="M35.5488 170.298C35.6227 170.943 35.6441 171.593 35.6128 172.241C35.6128 172.345 35.6128 172.457 35.6128 172.569C35.6044 172.622 35.6044 172.676 35.6128 172.729C35.6473 171.918 35.6259 171.106 35.5488 170.298Z" fill="#383838" stroke="#231F20" stroke-width="0.150815" stroke-miterlimit="10"/>
<path d="M54.9771 192.077C58.0644 192.781 60.576 193.533 61.8077 194.253C61.2478 195.157 54.0493 195.053 54.0493 195.053C54.0493 195.053 53.9613 195.293 53.8254 195.708C53.7694 195.868 53.7134 196.036 53.6494 196.244C53.1855 197.596 52.4177 199.964 51.6418 202.579C50.3141 207.138 49.0104 212.473 49.4423 214.649C50.2421 218.776 53.5214 231.661 53.0975 238.204C52.7056 244.363 47.7946 261.895 47.3147 267.526C47.2834 267.831 47.27 268.138 47.2747 268.446C47.3226 270.045 47.3387 272.669 47.3227 275.252C47.3227 276.052 47.3227 276.852 47.3227 277.652C47.3227 279.067 47.3227 280.387 47.3227 281.419C47.3248 281.454 47.3248 281.488 47.3227 281.523C47.2455 281.942 47.0724 282.338 46.8171 282.679C46.5619 283.02 46.2313 283.298 45.851 283.49C45.2478 283.718 44.5825 283.718 43.9793 283.49C41.2039 282.627 36.7408 277.836 35.7091 278.028C35.4568 278.069 35.2182 278.171 35.0132 278.324C34.9723 277.97 34.9723 277.613 35.0132 277.26C35.0132 276.18 36.021 271.261 36.9008 266.062C37.5806 262.573 38.0004 259.039 38.1566 255.488C38.1566 249.05 34.0055 217.896 32.8617 212.993C32.1818 210.058 32.2857 204.035 32.6776 198.796C32.842 196.011 33.1894 193.241 33.7175 190.502C33.7815 190.222 33.8534 189.894 33.9174 189.534C33.9814 189.174 34.0454 188.814 34.1174 188.414C35.7171 188.638 38.3805 189.022 41.4119 189.494C45.683 190.238 50.8099 191.125 54.9771 192.077Z" fill="#231F20" stroke="#383838" stroke-width="0.150815" stroke-miterlimit="10"/>
<path d="M61.8555 194.141C61.8807 194.06 61.8967 193.977 61.9034 193.893C61.8976 193.977 61.8816 194.061 61.8555 194.141Z" fill="#383838" stroke="#231F20" stroke-width="0.150815" stroke-miterlimit="10"/>
<path d="M58.0081 279.203C57.8472 279.589 57.6168 279.941 57.3282 280.243C56.3844 281.203 54.8727 281.427 52.9851 280.875L52.7532 280.803C52.4972 280.723 52.2413 280.619 51.9533 280.515C51.6654 280.411 51.2175 280.179 50.8336 279.987C50.4496 279.795 50.0817 279.571 49.6897 279.331C49.4498 279.187 49.2098 279.027 48.9699 278.867C48.442 278.499 47.8981 278.068 47.3702 277.66C47.3702 276.86 47.3702 276.06 47.3702 275.26C47.3702 272.677 47.3703 270.085 47.3223 268.445C47.3376 267.449 47.4393 266.457 47.6262 265.478C48.1541 262.279 49.2818 257.432 50.3776 252.593C51.6893 246.89 52.9451 241.203 53.1371 238.196C53.569 231.645 50.2976 218.768 49.4818 214.633C49.0499 212.457 50.3536 207.13 51.6893 202.563C51.3612 205.285 51.5319 208.044 52.1932 210.705C53.329 215.632 56.6564 231.861 56.7524 239.163C56.8084 243.651 57.4642 255.16 57.9521 263.415C58.2641 268.621 58.512 272.525 58.512 272.525C58.6701 273.239 58.7558 273.968 58.7679 274.7C58.8533 276.239 58.5937 277.778 58.0081 279.203Z" fill="#231F20" stroke="#383838" stroke-width="0.150815" stroke-miterlimit="10"/>
<path d="M29.4379 160.955C29.3259 160.995 29.1979 161.043 29.0699 161.075L28.886 161.139L28.694 161.195L28.2221 161.323L28.0302 161.371C27.9672 161.391 27.9031 161.407 27.8382 161.419L27.5503 161.483L27.3503 161.531C27.2866 161.539 27.2221 161.539 27.1584 161.531H26.9984L26.7984 161.571L26.4065 161.635C25.4538 161.783 24.4912 161.858 23.5271 161.859H22.8152H22.2793H21.9994H21.6315L21.0476 161.787C19.5033 160.729 18.2604 159.287 17.4404 157.604C17.2244 157.156 17.0164 156.684 16.8325 156.18C16.5685 155.429 16.3125 154.685 16.1046 153.957C15.7753 152.804 15.5083 151.635 15.3048 150.454C14.5278 146.336 14.6231 142.102 15.5847 138.024C15.5985 137.935 15.62 137.846 15.6487 137.76C16.1846 138.064 16.7525 138.408 17.3123 138.776L17.6963 139.032C18.2721 139.4 18.8321 139.832 19.352 140.16L19.5999 140.336L19.9599 140.592L20.1518 140.728L20.5277 141C20.5277 141 20.5277 141 20.5756 141.048H20.6317L21.0956 141.399L21.5195 141.711C21.5424 141.737 21.5695 141.759 21.5995 141.775L21.6794 141.839L22.1753 142.223L22.3673 142.367L22.5113 142.479L22.6473 142.599C22.3273 143.833 22.0868 145.086 21.9274 146.35C21.9274 146.598 21.8714 146.854 21.8394 147.15C21.8075 147.446 21.8394 147.494 21.7914 147.662C21.7434 147.83 21.7914 148.054 21.7914 148.246C21.7914 148.334 21.7914 148.438 21.7914 148.534V148.614C21.7914 149.134 21.7914 149.662 21.7914 150.214V150.342C21.7914 150.398 21.7914 150.454 21.7914 150.51C21.7914 150.566 21.7914 150.654 21.7914 150.726C21.7954 150.789 21.7954 150.854 21.7914 150.918C21.7914 150.974 21.7914 151.046 21.7914 151.109V151.341C21.7914 151.541 21.7914 151.733 21.8714 151.933C21.9514 152.133 21.9354 152.357 21.9834 152.557C22.1062 153.216 22.2993 153.859 22.5593 154.477C22.5733 154.526 22.592 154.575 22.6153 154.621C22.7032 154.821 22.7992 155.021 22.9112 155.221C22.9086 155.239 22.9086 155.258 22.9112 155.277C23.0712 155.565 23.2391 155.837 23.4071 156.076C23.4071 156.116 23.4551 156.156 23.4871 156.204C23.5315 156.257 23.5717 156.313 23.6071 156.372L23.791 156.62L23.951 156.836L24.031 156.932L24.151 157.084C24.1813 157.128 24.2161 157.168 24.255 157.204C24.295 157.252 24.319 157.292 24.359 157.332L24.4789 157.476L24.5988 157.612L24.7268 157.748C24.7988 157.828 24.8788 157.9 24.9508 157.972C25.2601 158.288 25.5858 158.587 25.9266 158.868L26.1346 159.028L26.2705 159.132L26.4625 159.276L26.5664 159.356L26.6704 159.428L26.7824 159.5C26.8137 159.528 26.8487 159.552 26.8864 159.572L26.9823 159.636L27.0863 159.708C27.1227 159.726 27.1575 159.748 27.1903 159.772L27.2863 159.836L27.3903 159.892C27.5662 160.004 27.7342 160.1 27.9022 160.188C27.9278 160.21 27.9578 160.226 27.9901 160.236L28.3181 160.404L28.3981 160.444C28.71 160.596 28.9899 160.716 29.1979 160.804H29.2699L29.4379 160.955Z" fill="#FDD70E" stroke="#383838" stroke-width="0.150815" stroke-miterlimit="10"/>
<path d="M11.4328 157.468L10.8808 156.981L10.7049 156.813C10.5929 156.701 10.4809 156.597 10.3689 156.477L10.201 156.309L10.081 156.181C10.0317 156.137 9.98623 156.088 9.94509 156.037L9.84911 155.941L9.6971 155.765C9.30518 155.333 8.93724 154.885 8.58531 154.413C8.58531 154.357 8.5054 154.293 8.45741 154.237C8.08948 153.717 7.73751 153.173 7.40958 152.637L7.3136 152.469C7.16163 152.197 7.02563 151.926 6.88166 151.67L6.78568 151.462L6.71372 151.31L6.60974 151.086L6.49775 150.846C6.44976 150.734 6.40183 150.622 6.35384 150.494C6.30584 150.366 6.35384 150.454 6.35384 150.43L6.28178 150.27C6.26937 150.223 6.25337 150.178 6.23384 150.134C6.23384 150.062 6.17787 150.006 6.15388 149.942C6.12988 149.878 6.0979 149.782 6.06591 149.702C6.04408 149.623 6.01729 149.546 5.98584 149.47C5.98584 149.382 5.92988 149.31 5.90588 149.222L5.83392 148.99C5.83392 148.926 5.83386 148.87 5.76987 148.814C5.6339 148.342 5.50596 147.87 5.40198 147.382C5.40582 147.319 5.40582 147.254 5.40198 147.191C5.40198 147.135 5.40198 147.079 5.40198 147.031C5.40198 146.983 5.40198 146.895 5.40198 146.831L5.35404 146.527V146.319C5.35404 146.191 5.35399 146.071 5.298 145.951C5.30184 145.887 5.30184 145.823 5.298 145.759C5.298 145.503 5.24203 145.231 5.21803 144.959C5.21378 144.884 5.21378 144.81 5.21803 144.735C5.21803 144.687 5.21803 144.623 5.21803 144.567C5.21803 144.511 5.21803 144.463 5.21803 144.407C5.21803 144.351 5.21803 144.287 5.21803 144.223V144.071C5.21803 144.015 5.21803 143.959 5.21803 143.895C5.21803 143.831 5.21803 143.567 5.21803 143.407V143.335C5.21803 143.255 5.21803 143.175 5.21803 143.095C5.21803 143.015 5.21803 142.711 5.21803 142.519C5.21803 142.328 5.218 141.96 5.28198 141.68C5.28198 141.584 5.28198 141.488 5.28198 141.392V141.112C5.28198 141.016 5.28198 140.92 5.28198 140.832C5.28198 140.744 5.28203 140.64 5.33002 140.552C5.37801 140.464 5.33002 140.36 5.33002 140.264C5.33002 140.168 5.39401 139.904 5.434 139.728C5.434 139.592 5.48997 139.464 5.51397 139.336C5.53796 139.208 5.57796 139.056 5.61795 138.912C5.86583 138.577 6.13289 138.257 6.41779 137.952C6.77357 137.584 7.1677 137.254 7.59352 136.969C8.45149 136.524 9.41176 136.314 10.3769 136.361H10.5929H10.8968H11.0808H11.3528C10.3102 138.513 9.54675 140.79 9.08121 143.135C8.70832 145.009 8.60597 146.927 8.77726 148.83C9.1556 151.842 10.0542 154.764 11.4328 157.468Z" fill="#FDD70E" stroke="#383838" stroke-width="0.150815" stroke-miterlimit="10"/>
<path d="M21.016 161.763L20.3442 161.667L19.6722 161.531C19.5602 161.531 19.4563 161.483 19.3444 161.459C19.2324 161.435 18.9044 161.363 18.6884 161.299L18.3606 161.203L18.0806 161.123H18.0166L17.1048 160.811L16.7928 160.692L16.5529 160.596L16.4169 160.54L16.201 160.452L15.873 160.308L15.5691 160.164L15.2811 160.02L14.9932 159.876L14.7053 159.716L14.1534 159.404C13.8735 159.236 13.5935 159.06 13.3536 158.876L13.1456 158.74L12.5458 158.316C12.2818 158.116 12.0259 157.916 11.7459 157.708L11.5139 157.516C10.0956 154.817 9.15907 151.891 8.74653 148.87C8.57523 146.967 8.67759 145.049 9.05047 143.175C9.51601 140.829 10.2793 138.553 11.322 136.4C11.3779 136.397 11.434 136.397 11.4899 136.4H11.6579H11.8339H12.0818H12.1298L12.3697 136.448C12.5857 136.488 12.8097 136.536 13.0416 136.6L13.2096 136.648L13.4256 136.712L13.8575 136.848L14.0014 136.904C14.4754 137.077 14.9376 137.28 15.3851 137.512L15.6331 137.656C15.6051 137.745 15.5837 137.836 15.5691 137.928C14.6077 142.006 14.5124 146.24 15.2891 150.358C15.6631 152.308 16.1982 154.223 16.8888 156.084C17.6135 158.374 19.0618 160.367 21.016 161.763Z" fill="#1182C5" stroke="#383838" stroke-width="0.150815" stroke-miterlimit="10"/>
<path d="M39.8835 134.649C39.5076 138.544 38.6438 140.671 34.7726 144.039C30.1575 148.038 24.3748 150.573 21.8553 151.965C21.6029 150.107 21.6029 148.224 21.8553 146.366C22.0106 145.098 22.2537 143.842 22.5831 142.607L22.4312 142.487C22.5755 142.414 22.7336 142.374 22.895 142.367C25.1026 142.191 28.1179 140.863 30.7814 139.168C32.0979 138.359 33.3423 137.439 34.5007 136.416L34.8366 136.112C36.164 134.71 37.051 132.95 37.3881 131.049L37.6601 131.353C37.964 131.721 38.2599 132.097 38.5399 132.489L38.6599 132.657C38.9878 133.113 39.2917 133.593 39.5796 134.081L39.6517 134.217L39.8835 134.649Z" fill="#F2F1FB" stroke="#383838" stroke-width="0.150815" stroke-miterlimit="10"/>
<path d="M42.0595 143.375C42.0613 145.955 41.5235 148.506 40.4808 150.866C39.4381 153.225 37.9134 155.341 36.0047 157.076C35.363 157.66 34.6786 158.195 33.9571 158.676C32.5609 159.631 31.0403 160.39 29.438 160.931L29.31 160.883H29.2381C29.0221 160.795 28.7422 160.676 28.4382 160.524L28.3583 160.484L28.0303 160.316C27.9979 160.306 27.968 160.29 27.9423 160.268C27.7744 160.18 27.6064 160.084 27.4304 159.972L27.3265 159.916L27.2305 159.852C27.1977 159.827 27.1629 159.806 27.1265 159.788L27.0225 159.716L26.9265 159.652C26.8888 159.632 26.8539 159.608 26.8226 159.58L26.7106 159.508L26.6066 159.436L26.5026 159.356L26.3106 159.212L26.1746 159.108L25.9667 158.948C25.6259 158.667 25.3002 158.368 24.9909 158.052C24.9189 157.98 24.8389 157.908 24.7669 157.828L24.639 157.692L24.519 157.556L24.399 157.412C24.399 157.372 24.335 157.332 24.295 157.284C24.2562 157.248 24.2213 157.208 24.1911 157.164L24.0711 157.012L23.9911 156.916L23.8312 156.7L23.6472 156.452C23.6119 156.393 23.5717 156.337 23.5272 156.284C23.5272 156.236 23.4793 156.196 23.4473 156.156C23.5538 156.164 23.6606 156.164 23.7671 156.156H24.0071H24.2631L24.6709 156.108L25.0709 156.036H25.2708L25.6787 155.956C26.0227 155.892 26.3747 155.805 26.7586 155.709C27.1425 155.613 27.7503 155.453 28.2702 155.293C28.7901 155.133 29.446 154.917 30.0299 154.701C30.2938 154.605 30.5498 154.509 30.8297 154.405L31.2056 154.253L31.9415 153.933L32.3014 153.765L32.6534 153.589L32.8853 153.469C33.3511 153.229 33.8025 152.962 34.237 152.669L34.365 152.581C37.8122 150.23 41.0436 146.718 42.0674 142.183C42.0674 142.255 42.0674 142.327 42.0674 142.407C42.0637 142.447 42.0637 142.487 42.0674 142.527C42.0637 142.57 42.0637 142.613 42.0674 142.655C42.0514 142.807 42.0595 143.087 42.0595 143.375Z" fill="#F2F1FB" stroke="#383838" stroke-width="0.150815" stroke-miterlimit="10"/>
<path d="M42.0113 142.047C40.9715 146.662 37.6762 150.213 34.1809 152.565C31.1655 154.596 25.5347 156.132 23.4231 156.132C23.2392 155.852 23.0632 155.564 22.8952 155.252C22.3565 154.227 22.0045 153.114 21.8555 151.965C24.4149 150.573 30.1577 148.062 34.7727 144.039C38.6439 140.671 39.5078 138.544 39.8837 134.648C40.1466 135.132 40.3842 135.628 40.5956 136.136C40.6516 136.264 40.7076 136.4 40.7556 136.528C40.8036 136.656 40.8116 136.672 40.8436 136.736L40.9155 136.936C40.9155 137.008 40.9635 137.08 40.9955 137.152L41.1155 137.504C41.1332 137.569 41.1545 137.633 41.1794 137.696C41.2594 137.952 41.3314 138.208 41.4034 138.496C41.4 138.528 41.4 138.56 41.4034 138.592V138.704C41.4914 139.024 41.5634 139.352 41.6354 139.679V139.831C41.6834 140.047 41.7154 140.263 41.7554 140.487C41.7516 140.554 41.7516 140.621 41.7554 140.687C41.759 140.741 41.759 140.794 41.7554 140.847C41.9394 141.231 42.0113 141.639 42.0113 142.047Z" fill="#FDD70E" stroke="#383838" stroke-width="0.150815" stroke-miterlimit="10"/>
<path d="M30.8139 139.2L29.7981 139.808C28.7974 140.38 27.7638 140.893 26.7027 141.343L26.1908 141.543C25.8549 141.671 25.5189 141.783 25.199 141.887C24.8791 141.991 24.5512 142.079 24.2472 142.151C23.8129 142.254 23.3719 142.326 22.9275 142.367C22.7649 142.373 22.606 142.417 22.4636 142.495L21.6638 141.847L21.4958 141.719L20.616 141.064L20.504 140.976L20.1361 140.712C20.0721 140.656 20.0081 140.616 19.9441 140.568L19.5841 140.312L19.3362 140.136C18.8163 139.76 18.2564 139.376 17.6885 139.008L17.2166 138.728C16.6568 138.36 16.0889 138.016 15.553 137.704L15.305 137.56C14.8575 137.328 14.3953 137.125 13.9213 136.952L13.7773 136.896L13.3455 136.76L13.1295 136.696L12.9616 136.648C12.7296 136.584 12.5056 136.536 12.2896 136.496L12.0497 136.448H12.0017H11.7538H11.5778H11.4098C11.3539 136.445 11.2978 136.445 11.2419 136.448H10.9699H10.818H10.514H10.298C9.33287 136.402 8.37261 136.612 7.51463 137.056C7.08881 137.342 6.69468 137.671 6.3389 138.04C6.054 138.344 5.78694 138.665 5.53906 139C5.53906 138.896 5.59504 138.784 5.62703 138.672L5.67497 138.504L5.74703 138.224C5.78702 138.112 5.81902 137.992 5.85902 137.88C5.89901 137.768 5.93891 137.648 5.97091 137.528C5.97091 137.528 5.97091 137.464 5.97091 137.424V137.336V137.28C5.97531 137.27 5.97764 137.259 5.97764 137.248C5.97764 137.237 5.97531 137.226 5.97091 137.216V137.152C6.04289 136.936 6.13092 136.712 6.2189 136.496C6.22544 136.468 6.22544 136.437 6.2189 136.409C6.2189 136.337 6.29089 136.249 6.32289 136.177C6.34066 136.143 6.35663 136.108 6.37083 136.073C6.40761 136 6.43976 135.925 6.4669 135.849C6.53089 135.721 6.58686 135.593 6.65085 135.473L6.70679 135.353C6.70679 135.281 6.7788 135.193 6.82679 135.121V135.057L7.17867 134.409L7.36271 134.097L7.54666 133.801L7.71459 133.529L7.82658 133.361C7.85664 133.31 7.89146 133.262 7.93056 133.217C7.93056 133.217 7.97051 133.145 7.98651 133.113C8.00251 133.081 8.08253 132.977 8.13052 132.913C8.2665 132.713 8.42641 132.513 8.57838 132.313L8.67436 132.177L8.77033 132.073L8.88232 131.913C9.01829 131.753 9.14628 131.593 9.29025 131.434L9.41024 131.29L9.62621 131.058C10.4784 130.957 11.3383 130.941 12.1937 131.01L13.1934 131.106C20.416 131.809 28.0464 137.128 30.8139 139.2Z" fill="#1182C5" stroke="#383838" stroke-width="0.150815" stroke-miterlimit="10"/>
<path d="M37.4035 131.074C37.0694 132.9 36.2393 134.599 35.004 135.985C34.956 136.041 34.8921 136.097 34.8361 136.153L34.5001 136.449C34.4441 136.369 34.3722 136.281 34.3082 136.185L33.8682 135.601L33.6123 135.273C33.4444 135.049 33.2604 134.817 33.0445 134.569L32.7325 134.193C32.5246 133.937 32.2926 133.673 32.0447 133.393C31.7967 133.113 31.5568 132.858 31.2448 132.594C31.1169 132.458 30.9809 132.314 30.8369 132.186C28.0695 129.426 24.1663 126.587 19.7432 126.331H19.4712C18.2394 126.275 17.1197 126.283 16.0879 126.331C16.8676 126.007 17.6695 125.74 18.4874 125.531C20.108 125.069 21.7853 124.838 23.4704 124.843C27.7744 124.836 31.9464 126.329 35.2679 129.066C36.0327 129.677 36.7469 130.348 37.4035 131.074Z" fill="#1182C5" stroke="#383838" stroke-width="0.150815" stroke-miterlimit="10"/>
<path d="M34.5165 136.448C34.2606 136.68 33.9806 136.912 33.7167 137.152L33.4927 137.32L33.2687 137.504L33.0368 137.672L32.8529 137.808C32.597 138.008 32.317 138.2 32.0531 138.392C31.9891 138.392 31.933 138.472 31.869 138.512L31.3572 138.848L31.1012 139.016L30.9093 139.136L30.8453 139.176C28.0939 137.112 20.4474 131.785 13.4168 130.873L12.4171 130.777C11.5617 130.709 10.7018 130.725 9.84961 130.825C10.3714 130.256 10.9298 129.722 11.5212 129.226L11.7452 129.042L11.7932 128.994C11.8491 128.938 11.9131 128.898 11.9771 128.842L12.2891 128.594L12.569 128.394L12.761 128.25L12.9769 128.098L13.1609 127.97C13.4249 127.794 13.6888 127.618 13.9608 127.458L14.4567 127.17L14.6246 127.074L14.7765 126.994L14.9285 126.906C15.3365 126.698 15.7283 126.498 16.1762 126.314C17.3912 126.25 18.6086 126.25 19.8235 126.314C26.8701 126.73 32.6369 133.809 34.5165 136.448Z" fill="#F2F1FB" stroke="#383838" stroke-width="0.150815" stroke-miterlimit="10"/>
<path d="M66.574 160.076L65.9821 164.587C64.9743 172.178 62.9588 187.166 62.1509 192.301C62.1509 192.405 62.1509 192.501 62.1509 192.589C62.1509 192.677 62.1029 192.861 62.0869 192.981C62.0709 193.101 62.0869 193.229 62.0229 193.333C61.959 193.437 61.975 193.621 61.951 193.733C61.927 193.845 61.9509 193.917 61.903 193.981V194.053C60.6872 193.333 58.1677 192.589 55.0803 191.877C52.6808 191.326 49.8894 190.79 47.138 190.278L43.8187 189.718L41.4192 189.334C38.3958 188.854 35.7483 188.478 34.1247 188.246C34.1887 187.894 34.2446 187.51 34.2926 187.118L34.3886 186.471C34.3886 186.255 34.4525 186.039 34.4765 185.815C34.5005 185.591 34.5405 185.287 34.5805 185.015C34.5805 184.935 34.5805 184.863 34.5805 184.791C34.5805 184.567 34.6286 184.351 34.6606 184.135C34.6926 183.919 34.6605 183.823 34.7165 183.671C34.7165 183.671 34.7165 183.671 34.7165 183.615L34.7885 183.031L34.8605 182.295C34.8605 181.952 34.9324 181.6 34.9724 181.248C34.9724 181.096 34.9725 180.936 35.0285 180.784C35.0845 180.256 35.1324 179.728 35.1724 179.184C35.1724 178.952 35.2205 178.72 35.2445 178.488C35.2445 178.488 35.2445 178.448 35.2445 178.432C35.2484 178.384 35.2484 178.336 35.2445 178.288C35.2445 178.136 35.2445 177.976 35.2445 177.824C35.2445 177.672 35.2444 177.368 35.3004 177.145C35.3564 176.921 35.3004 176.761 35.3484 176.577C35.3964 176.393 35.3484 176.209 35.3484 176.025C35.3484 175.841 35.3484 175.657 35.3964 175.489C35.4444 175.321 35.3964 174.977 35.3964 174.689C35.3964 174.401 35.3964 174.297 35.4364 174.113C35.4326 174.06 35.4326 174.006 35.4364 173.953C35.4364 173.753 35.4364 173.553 35.4364 173.353C35.4364 173.153 35.4364 172.849 35.4364 172.617C35.4324 172.562 35.4324 172.505 35.4364 172.449C35.4284 172.396 35.4284 172.343 35.4364 172.29C35.4364 172.178 35.4364 172.074 35.4364 171.97C35.4679 171.318 35.4465 170.666 35.3724 170.018C35.3724 169.842 35.3164 169.65 35.2924 169.418L35.2445 169.106C35.1805 168.554 35.1005 167.882 35.0125 167.147C35.0125 166.819 34.9325 166.475 34.8845 166.123C34.8845 166.123 34.8845 166.043 34.8845 166.003C34.8845 165.835 34.8845 165.667 34.8205 165.491C34.7565 165.315 34.8205 165.139 34.7645 164.971C34.7085 164.803 34.7245 164.619 34.7085 164.443C34.6125 163.555 34.5086 162.659 34.4126 161.812C34.4126 161.812 34.4126 161.756 34.4126 161.732C34.3406 161.076 34.2766 160.452 34.2206 159.884C34.2206 159.836 34.2206 159.78 34.2206 159.732C34.1247 158.764 34.0447 157.956 34.0047 157.477C33.9958 157.325 33.9958 157.172 34.0047 157.021V156.325C34.0047 156.325 35.6043 156.237 38.0038 156.181H38.1158C39.8195 156.181 41.931 156.117 44.1946 156.133H46.0422H47.6419H48.5537C49.1456 156.133 49.7535 156.133 50.3534 156.205H51.0012C51.2891 156.205 51.5771 156.205 51.8571 156.253C51.0344 158.019 50.4171 159.873 50.0174 161.78C49.9454 162.811 49.8175 164.755 49.6575 165.731C49.4975 166.707 50.1454 166.747 50.9532 166.531C51.7611 166.315 52.3689 164.435 52.3689 164.435C52.3108 165.09 52.1903 165.738 52.009 166.371C51.6491 167.85 51.3771 168.05 50.4093 170.282C49.4415 172.513 51.2091 172.569 51.769 172.681C52.3289 172.793 52.6329 171.786 52.6329 172.058C52.6329 172.329 53.4327 173.313 54.9524 173.337C56.4721 173.361 56.848 172.369 56.848 172.369L57.056 172.465C58.0362 172.329 58.9675 171.952 59.7674 171.37C60.8631 170.634 61.0071 170.346 61.0071 170.346C61.5436 170.23 62.0627 170.045 62.5509 169.794C63.3987 169.37 63.7266 168.258 64.3185 166.011C64.3185 165.891 64.3745 165.763 64.4064 165.611C64.7368 163.447 64.9345 161.264 64.9983 159.076C65.4542 159.212 65.7502 159.308 65.7982 159.316C65.9125 159.397 66.0196 159.488 66.1181 159.588L66.1821 159.652C66.2739 159.691 66.3565 159.748 66.4241 159.821C66.4917 159.895 66.5428 159.981 66.574 160.076Z" fill="#1182C5" stroke="#383838" stroke-width="0.150815" stroke-miterlimit="10"/>
<path d="M34.0527 188.47C34.1007 188.11 34.1567 187.742 34.2207 187.335C34.1647 187.734 34.1087 188.11 34.0527 188.47Z" fill="#062C43" stroke="#231F20" stroke-width="0.150815" stroke-miterlimit="10"/>
<path d="M34.3888 186.103C34.3888 186.103 34.3888 186.055 34.3888 186.031C34.3888 186.255 34.3248 186.479 34.3008 186.686C34.3328 186.495 34.3648 186.303 34.3888 186.103Z" fill="#062C43" stroke="#231F20" stroke-width="0.150815" stroke-miterlimit="10"/>
<path d="M34.5572 184.783C34.5572 184.639 34.5572 184.487 34.6132 184.343C34.6132 184.567 34.5652 184.783 34.5332 184.999C34.5451 184.927 34.5532 184.855 34.5572 184.783Z" fill="#062C43" stroke="#231F20" stroke-width="0.150815" stroke-miterlimit="10"/>
<path d="M35.07 180.128L35.1421 179.424L34.998 181.024C34.998 180.904 34.998 180.768 34.998 180.64C35.0315 180.471 35.0555 180.3 35.07 180.128Z" fill="#062C43" stroke="#231F20" stroke-width="0.150815" stroke-miterlimit="10"/>
<path d="M65.1434 159.316C65.0946 161.638 64.8672 163.954 64.4634 166.242C63.8716 168.49 63.5437 169.609 62.6958 170.033C62.2084 170.284 61.6891 170.467 61.1522 170.577C61.1522 170.577 61.0082 170.873 59.9124 171.601C59.1165 172.186 58.1873 172.562 57.209 172.697L56.993 172.601C56.8198 172.94 56.5446 173.217 56.2061 173.392C55.8675 173.567 55.4825 173.632 55.1054 173.577C53.5537 173.577 52.7779 172.577 52.7779 172.297C52.7779 172.017 52.466 173.097 51.9221 172.913C51.3782 172.729 49.5946 172.721 50.5544 170.513C51.5142 168.306 51.8021 168.114 52.1541 166.594C52.3323 165.961 52.4501 165.313 52.5059 164.658C52.5059 164.658 51.914 166.506 51.0902 166.754C50.2664 167.002 49.6425 166.978 49.8025 165.994C49.9625 165.01 50.0825 163.075 50.1545 162.043C50.5592 160.138 51.1762 158.284 51.994 156.516L51.1463 156.468C53.7617 156.036 62.4159 158.508 65.1434 159.316Z" fill="#062C43" stroke="#231F20" stroke-width="0.150815" stroke-miterlimit="10"/>
<path d="M35.6125 172.241C35.6125 172.345 35.6125 172.457 35.6125 172.561C35.6125 172.665 35.6125 172.785 35.6125 172.889C35.6125 173.689 35.5405 174.681 35.4685 175.721C35.4685 176.072 35.4125 176.44 35.3886 176.816C35.3886 176.992 35.3886 177.184 35.3406 177.376C35.3406 177.744 35.2766 178.176 35.2526 178.52V178.728C35.2047 179.184 35.1646 179.664 35.1166 180.128C35.1166 180.288 35.1166 180.448 35.1166 180.608C35.1166 180.895 35.0607 181.175 35.0207 181.455C34.9647 182.055 34.8927 182.655 34.8287 183.239C34.8287 183.439 34.7807 183.631 34.7647 183.823C34.7647 183.823 34.7647 183.863 34.7647 183.887C34.7647 184.191 34.6848 184.487 34.6528 184.783C34.6528 184.927 34.6527 185.079 34.5967 185.223C34.5967 185.495 34.5327 185.766 34.4927 186.022C34.4878 186.046 34.4878 186.071 34.4927 186.094C34.4368 186.518 34.3808 186.894 34.3248 187.326C34.2688 187.758 34.2049 188.126 34.1489 188.462C34.0929 188.798 34.0209 189.262 33.9569 189.582C32.4398 189.339 30.9387 189.005 29.4618 188.582C28.662 188.358 27.8622 188.118 27.1583 187.87C25.3871 187.287 23.6465 186.614 21.9434 185.854C21.9434 185.854 24.0069 168.466 24.7348 161.859C24.8628 160.692 24.9507 159.868 24.9827 159.532C25.0901 158.423 25.1356 157.31 25.1187 156.197L34.2128 156.245V157.252C34.2128 157.508 34.3008 158.556 34.4448 159.964C34.7727 163.211 35.3646 168.402 35.6365 170.25C35.674 170.913 35.666 171.579 35.6125 172.241Z" fill="#1182C5" stroke="#383838" stroke-width="0.150815" stroke-miterlimit="10"/>
<path d="M38.1401 156.324C36.0125 156.38 34.5568 156.324 34.2129 156.324H38.1401Z" fill="#1182C5" stroke="#383838" stroke-width="0.150815" stroke-miterlimit="10"/>
<path d="M33.8525 189.59C33.7805 189.95 33.7165 190.278 33.6525 190.558C33.1285 193.298 32.7811 196.068 32.6127 198.852C31.2488 195.526 30.16 192.094 29.3574 188.59C30.8343 189.014 32.3354 189.348 33.8525 189.59Z" fill="#231F20" stroke="#383838" stroke-width="0.150815" stroke-miterlimit="10"/>
<path d="M62.456 292.937C62.392 293.497 57.3689 294.081 53.4657 294.457C51.0662 294.688 49.1307 294.84 48.9387 294.848C49.9945 294.512 49.9625 293.625 49.7386 290.737C49.7386 290.497 49.7385 290.249 49.6905 289.977C49.3675 286.999 48.5568 284.094 47.291 281.379C47.291 280.355 47.291 279.052 47.291 277.652C47.8509 278.1 48.3948 278.5 48.8907 278.86C49.1306 279.028 49.3786 279.188 49.6106 279.332C50.0025 279.58 50.4104 279.795 50.7544 279.987C51.0983 280.179 51.5061 280.363 51.8741 280.515C52.242 280.667 52.402 280.723 52.6739 280.803L52.9059 280.875C54.8015 281.435 56.3052 281.211 57.249 280.243C57.5376 279.942 57.768 279.589 57.9289 279.204C58.5083 277.785 58.765 276.255 58.6807 274.725C61.2481 275.908 62.24 281.459 62.3919 284.778C62.4399 285.898 62.4639 287.09 62.4719 288.218C62.5519 290.401 62.52 292.297 62.456 292.937Z" fill="#FDD70E" stroke="#383838" stroke-width="0.150815" stroke-miterlimit="10"/>
<path d="M65.3022 152.933C65.3022 151.526 67.5178 144.783 69.9413 137.624C68.9095 146.791 66.5819 160.236 66.5819 160.236C66.5819 160.236 66.5179 159.748 65.1582 159.076C65.2702 156.636 65.3182 154.237 65.3022 152.933Z" fill="#E53337" stroke="#383838" stroke-width="0.150815" stroke-miterlimit="10"/>
<path opacity="0.2" d="M65.3022 152.933C65.3022 151.526 67.5178 144.783 69.9413 137.624C68.9095 146.791 66.5819 160.236 66.5819 160.236C66.5819 160.236 66.5179 159.748 65.1582 159.076C65.2702 156.636 65.3182 154.237 65.3022 152.933Z" fill="#231F20"/>
<path d="M80.0271 91.1614C80.0271 91.6173 79.9471 92.0092 79.8991 92.3452C79.8589 92.6584 79.7865 92.9666 79.6832 93.265C79.6192 93.417 79.5552 93.5049 79.4832 93.5289L78.9073 93.6889H78.7633L76.9238 94.1208C73.0606 94.9846 66.166 96.4243 64.3103 96.8083L63.8224 96.9042C63.8224 96.9042 63.9744 98.08 64.2544 99.7357C64.4943 101.127 64.8302 102.863 65.2701 104.535C66.2379 108.158 65.766 114.173 64.9581 117.052C64.1503 119.932 62.5587 130.761 62.0708 133.465C61.5829 136.168 58.6715 145.286 57.8397 147.542C57.0079 149.797 53.6406 153.597 52.6488 155.22C52.4093 155.618 52.1929 156.029 52.0008 156.452C51.5849 156.452 51.201 156.404 50.7291 156.38H50.4971C49.6013 156.34 48.6975 156.3 47.7937 156.276C44.2584 156.18 40.8032 156.22 38.2437 156.276H38.1397H34.2125H34.1085L25.0144 156.228C25.0144 156.228 26.918 141.351 28.0138 137.784C28.5337 136.048 29.3335 131.009 30.0693 126.01C30.8691 120.747 31.5571 115.54 31.845 114.253C32.162 112.796 32.1946 111.291 31.941 109.822C31.805 108.782 31.621 107.566 31.4211 105.958C31.3571 105.462 31.2931 104.887 31.2131 104.247C30.6692 99.4477 29.8614 91.4494 29.8614 91.4494C28.5686 91.1793 27.2985 90.8103 26.0622 90.3456C24.913 89.9966 23.8865 89.3281 23.1028 88.418C22.2661 87.3279 21.6346 86.0948 21.2392 84.7787C21.0998 84.4015 21.0032 84.0098 20.9513 83.611C20.8486 82.6839 21.0357 81.7478 21.4871 80.9315C21.6071 80.6676 21.735 80.3956 21.887 80.1317C21.951 79.9957 22.031 79.8037 22.111 79.5798C23.854 74.3586 25.3067 69.0449 26.4621 63.6631C27.5259 58.4641 27.9177 56.2166 30.0693 52.9452C32.2209 49.6739 39.4194 47.8663 40.2273 47.3464C41.0351 46.8265 41.7629 44.8589 41.9069 44.547C41.9629 44.427 41.9869 44.483 41.9869 44.7389C41.9869 45.1228 41.9869 45.9547 41.9869 47.3144C41.9271 48.536 41.8016 49.7535 41.611 50.9617C41.611 51.0336 41.611 51.1056 41.611 51.1936C41.515 51.8895 41.411 52.6173 41.315 53.3372L41.0831 55.0488C40.9576 55.9319 40.8776 56.8209 40.8432 57.7123C40.8432 59.9918 43.6665 63.3911 43.6665 63.3911C43.6665 63.3911 49.6333 56.3845 50.865 54.089C52.0968 51.7935 56.4639 44.443 56.9998 42.8273C57.5357 41.2117 56.6479 38.7802 56.6479 38.7802C57.5315 39.0426 58.2936 39.6093 58.7994 40.3798C58.8471 40.468 58.8898 40.5588 58.9275 40.6518L58.9994 40.8117L59.0474 40.9717C59.1014 41.1251 59.1415 41.283 59.1673 41.4436C59.1673 41.6116 59.2234 41.7715 59.2394 41.9315C59.2554 42.0915 59.2394 42.4274 59.2953 42.6514C59.3031 42.8676 59.3464 43.081 59.4233 43.2832C59.7033 43.9951 62.2228 45.4188 68.1015 50.3058C73.9803 55.1928 77.9235 61.7834 78.9633 64.8228C79.7631 67.3583 80.563 84.7467 80.0271 91.1614Z" fill="#1182C5" stroke="#383838" stroke-width="0.150815" stroke-miterlimit="10"/>
<path d="M50.8093 159.564C50.5374 160.667 50.2734 161.915 50.1055 162.763C50.1055 162.483 50.1055 162.219 50.1535 161.963C50.2972 161.145 50.5168 160.341 50.8093 159.564Z" fill="#F4AB43" stroke="#383838" stroke-width="0.150815" stroke-miterlimit="10"/>
<path d="M51.2812 166.642C51.4351 166.514 51.582 166.378 51.7212 166.234C51.6056 166.4 51.4555 166.539 51.2812 166.642Z" fill="#F4AB43" stroke="#383838" stroke-width="0.150815" stroke-miterlimit="10"/>
<path d="M52 172.913C52.0893 172.906 52.1764 172.882 52.256 172.841C52.2213 172.871 52.1803 172.893 52.136 172.905C52.0918 172.918 52.0453 172.92 52 172.913Z" fill="#F4AB43" stroke="#383838" stroke-width="0.150815" stroke-miterlimit="10"/>
<path d="M52.2264 166.85C52.0104 168.298 50.7306 170.05 50.3627 171.713C50.3524 171.798 50.3524 171.884 50.3627 171.969C50.2612 171.462 50.3434 170.934 50.5947 170.482C51.5545 168.234 51.8344 168.082 52.1943 166.562C52.3143 166.05 52.3944 165.667 52.4503 165.379C52.3464 165.923 52.2824 166.442 52.2264 166.85Z" fill="#F4AB43" stroke="#383838" stroke-width="0.150815" stroke-miterlimit="10"/>
<path d="M52.5045 164.683C52.3779 165.036 52.2283 165.381 52.0566 165.715C52.3988 164.341 52.6658 162.95 52.8565 161.547C52.8565 161.547 52.8565 161.595 52.8565 161.675C52.7605 162.267 52.6405 163.523 52.5045 164.683Z" fill="#F4AB43" stroke="#383838" stroke-width="0.150815" stroke-miterlimit="10"/>
<path d="M55.6085 151.565C54.8087 152.517 52.8651 155.253 51.9453 156.66L52.0253 156.484C52.2117 156.06 52.4254 155.649 52.6651 155.253C53.4649 153.941 55.8645 151.189 57.1523 148.99C56.7395 149.905 56.2214 150.77 55.6085 151.565Z" fill="#F4AB43" stroke="#383838" stroke-width="0.150815" stroke-miterlimit="10"/>
<path d="M58.6794 172.321C58.2244 172.564 57.7225 172.705 57.2077 172.737L56.9998 172.633C56.8232 172.974 56.5453 173.251 56.2043 173.427C55.8634 173.603 55.4763 173.67 55.0962 173.617H54.9922C55.2395 173.603 55.4856 173.571 55.7281 173.521C56.2579 173.262 56.731 172.9 57.1198 172.457C57.6434 172.524 58.1754 172.478 58.6794 172.321Z" fill="#F4AB43" stroke="#383838" stroke-width="0.150815" stroke-miterlimit="10"/>
<path d="M61.0399 170.721C60.6941 171.051 60.3163 171.346 59.9121 171.601C60.1941 171.313 60.4961 171.046 60.8159 170.801C60.8927 170.781 60.9677 170.754 61.0399 170.721Z" fill="#F4AB43" stroke="#383838" stroke-width="0.150815" stroke-miterlimit="10"/>
<path d="M55.9679 32.0781C55.9679 32.622 55.9679 33.3658 56.0239 34.4776C56.0239 35.1734 56.0879 35.8133 56.1439 36.3732C56.228 37.1838 56.3778 37.9863 56.5918 38.7727C56.5918 38.7727 57.5036 41.1722 56.9438 42.8119C56.3531 44.1688 55.68 45.4883 54.9282 46.763C53.4325 49.4585 51.5528 52.6818 50.809 54.0736C49.5692 56.3691 43.6105 63.3756 43.6105 63.3756C43.6105 63.3756 40.763 59.9843 40.787 57.6968C40.8395 56.5828 40.9489 55.4723 41.115 54.3695C41.115 54.2575 41.1149 54.1455 41.1709 54.0256C41.1749 53.9483 41.1749 53.8709 41.1709 53.7936C41.3149 52.7618 41.4749 51.674 41.6109 50.6583C41.7228 49.8584 41.8188 49.1226 41.8748 48.4747C41.9228 48.0188 41.9388 47.6189 41.9468 47.2829C41.9468 45.9152 41.9948 45.0914 41.9468 44.6995C42.0108 44.4675 41.2829 40.1564 41.2829 40.1564C40.003 40.1759 38.744 39.832 37.6517 39.1646C36.6039 38.4847 36.1 36.4132 35.8361 33.9017C35.7081 32.7659 35.6281 31.5502 35.5801 30.3184C35.5801 29.8545 35.5321 29.3746 35.5161 28.9107C35.3402 24.5676 35.4121 21.4082 35.764 20.2005C35.9267 19.202 35.9267 18.1837 35.764 17.1851C35.764 17.0012 35.764 16.8812 35.764 16.8492C38.8142 16.9771 41.8443 17.4057 44.8102 18.1289C48.5774 19.0647 51.0249 19.1607 51.6008 20.1525C52.1767 21.1443 51.9527 27.671 52.6646 26.2473C53.3764 24.8235 54.9441 23.9677 56.6637 22.8959C58.3834 21.8242 59.3032 21.5042 59.9751 24.1437C60.6469 26.7831 57.8795 29.7985 56.7757 30.5824C56.5196 30.7367 56.3096 30.9568 56.1675 31.2199C56.0255 31.4829 55.9565 31.7793 55.9679 32.0781Z" fill="#F8A98C"/>
<path d="M55.6477 157.452L52.1924 191.389L48.873 190.829C50.0968 185.27 51.8805 171.313 52.9363 157.348C53.8481 157.372 54.7519 157.412 55.6477 157.452Z" fill="#E53337" stroke="#383838" stroke-width="0.150815" stroke-miterlimit="10"/>
<path d="M64.8063 21.1522C63.6385 25.1514 61.343 27.039 59.9113 29.1505C58.4796 31.2621 57.9757 34.1815 56.1441 36.3491C56.0801 35.7892 56.0401 35.1573 56.0241 34.4615C56.0241 31.894 55.6962 31.3261 56.8239 30.5423C57.9517 29.7584 60.7032 26.735 60.0233 24.1036C59.3434 21.4721 58.4236 21.7921 56.712 22.8558C55.0003 23.9196 53.4406 24.7754 52.7128 26.2071C51.9849 27.6389 52.2169 21.1202 51.641 20.1204C51.0651 19.1206 48.6177 19.0166 44.8504 18.0888C41.0832 17.161 36.0522 16.6651 35.8122 16.8091C35.7643 16.8091 35.7563 16.961 35.8122 17.145C35.5116 17.0729 35.225 16.9513 34.9644 16.7851C34.6764 16.5371 34.2125 13.6737 34.9644 10.6503C35.7162 7.62696 39.1635 5.24345 41.9709 3.0439C44.7784 0.844347 49.9694 0.796357 51.833 1.18828C53.6966 1.5802 57.3839 2.54 60.1513 2.97191C62.9187 3.40382 65.1262 8.85071 65.6701 10.7703C66.214 12.6899 65.9581 17.217 64.8063 21.1522Z" fill="#383838" stroke="#383838" stroke-width="0.150815" stroke-miterlimit="10"/>
<path d="M31.2134 104.248C27.2142 112.094 19.3199 121.428 15.6086 125.603C14.8088 126.451 14.2729 127.091 13.929 127.451C13.657 127.611 13.3851 127.787 13.1291 127.963L12.9452 128.091L12.7292 128.243L12.5293 128.387C12.4333 128.451 12.3533 128.523 12.2654 128.587L11.9454 128.834L11.7615 128.986C11.7615 128.986 11.7614 128.986 11.7134 128.986L11.4894 129.178C10.9017 129.679 10.3436 130.213 9.81781 130.778L9.60184 131.01C9.60184 131.066 9.51384 131.106 9.48185 131.154C9.44985 131.202 9.2099 131.474 9.07392 131.642L8.96203 131.794C8.92411 131.823 8.89161 131.858 8.86606 131.898L8.76207 132.034C8.61011 132.234 8.4661 132.434 8.32213 132.642C8.27413 132.698 8.2341 132.77 8.17811 132.834C8.16088 132.871 8.13944 132.906 8.11416 132.938L8.01018 133.082C7.98176 133.137 7.9497 133.19 7.9142 133.242L7.73826 133.522C7.67376 133.617 7.61502 133.715 7.56232 133.817L7.37828 134.137L7.02639 134.785V134.849C6.9784 134.921 6.94639 135.009 6.9064 135.081C6.86641 135.153 6.90644 135.153 6.85045 135.201C6.78533 135.323 6.72652 135.449 6.67442 135.577C6.67442 135.649 6.60243 135.729 6.57043 135.801C6.56728 135.833 6.56728 135.865 6.57043 135.897L6.52249 135.993C6.45689 136.411 6.49255 136.839 6.62648 137.241C6.95441 138.385 7.18636 140.528 6.62648 140.912C6.29854 141.136 5.73864 141.784 5.10677 141.768C5.10677 141.968 5.10677 142.184 5.10677 142.384C5.10677 142.584 5.10677 142.768 5.10677 142.96C5.10677 143.152 5.10677 143.12 5.10677 143.192V143.28C5.10677 143.439 5.10677 143.599 5.10677 143.759C5.10677 143.919 5.10677 143.879 5.10677 143.943C5.10677 144.007 5.10677 144.031 5.10677 144.087V144.279C5.11097 144.333 5.11097 144.386 5.10677 144.439C5.10321 144.493 5.10321 144.546 5.10677 144.599C5.10252 144.674 5.10252 144.749 5.10677 144.823C5.10677 145.087 5.15474 145.359 5.18673 145.623C5.18673 145.679 5.18673 145.743 5.18673 145.807L5.23477 146.175C5.231 146.242 5.231 146.308 5.23477 146.375C5.23477 146.479 5.23472 146.583 5.28271 146.687C5.3307 146.791 5.28271 146.823 5.28271 146.879C5.28658 146.935 5.28658 146.991 5.28271 147.047C5.28271 147.119 5.32276 147.175 5.33875 147.239C5.43473 147.719 5.56267 148.198 5.69864 148.662L5.76269 148.846C5.76269 148.918 5.81065 149.006 5.83465 149.078C5.85864 149.15 5.88262 149.238 5.91461 149.318L5.99458 149.558C6.02869 149.639 6.05805 149.722 6.08255 149.806L6.16261 149.99C6.18214 150.034 6.19813 150.08 6.21055 150.126C6.23535 150.181 6.25669 150.237 6.2745 150.294C6.27187 150.313 6.27187 150.331 6.2745 150.35C6.32249 150.478 6.37052 150.59 6.41851 150.702C6.4665 150.814 6.49851 150.862 6.5305 150.942C6.56249 151.022 6.59449 151.094 6.63448 151.166L6.70644 151.326C6.74321 151.39 6.77529 151.457 6.80242 151.526C6.93839 151.798 7.0824 152.078 7.24237 152.326C7.26686 152.387 7.29627 152.445 7.33034 152.502C7.65211 153.054 8.00455 153.588 8.38608 154.101L8.50607 154.277C8.858 154.741 9.22594 155.197 9.61786 155.629L9.76978 155.805C9.76978 155.805 9.83386 155.877 9.86585 155.901L10.0018 156.045L10.1218 156.173L10.2897 156.341C10.4017 156.461 10.5217 156.573 10.6257 156.669L10.8016 156.837L11.3455 157.325C10.9136 157.829 10.8416 158.372 7.21034 155.429C3.45911 152.39 -0.236132 147.263 0.011817 141.096C0.259766 134.929 0.0117858 131.138 0.579669 129.666C1.14755 128.195 12.4413 107.647 15.8566 102.768C17.3123 100.68 18.568 98.8726 19.5678 97.2649C20.7666 95.5252 21.5843 93.5519 21.9673 91.4741C22.1203 90.3615 22.4526 89.2811 22.9512 88.2748C23.1233 88.4803 23.3104 88.6728 23.511 88.8507C23.8344 89.1355 24.1855 89.3873 24.5588 89.6025C24.9846 89.8467 25.4349 90.0452 25.9025 90.1944L26.2064 90.2984L27.0063 90.5543L28.1021 90.8902C28.6259 91.0626 29.1602 91.2016 29.7017 91.3062C29.7017 91.3622 29.7497 91.7541 29.8137 92.3699C29.8137 92.5379 29.8137 92.7219 29.8697 92.9298C29.9256 93.1378 29.8697 93.2018 29.9177 93.3537C29.9657 93.5057 29.9577 93.8096 29.9816 94.0576C30.0056 94.3055 29.9817 94.3935 30.0377 94.5695C30.0377 94.8894 30.1097 95.2254 30.1417 95.5773C30.2057 96.1052 30.2536 96.6571 30.3096 97.2249C30.3656 97.7928 30.4376 98.3847 30.4936 98.9766L30.5655 99.6165C30.6375 100.32 30.7095 101.008 30.7895 101.68C31.0374 102.672 31.1254 103.536 31.2134 104.248Z" fill="#F8A98C"/>
<path d="M78.9069 93.6894C77.0593 105.391 76.6833 114.405 75.7795 119.332C75.3156 121.892 72.5242 129.986 69.9328 137.624C67.5332 144.783 65.2697 151.526 65.3017 152.925C65.3337 154.325 65.3017 156.636 65.1498 159.076C65.1114 161.49 64.8813 163.897 64.4618 166.275C63.8699 168.522 63.542 169.642 62.6862 170.058C62.2647 170.27 61.8225 170.439 61.3664 170.562L61.1426 170.61C61.1154 170.658 61.0803 170.701 61.0386 170.738C60.9684 170.777 60.893 170.807 60.8146 170.826C60.4941 171.07 60.1921 171.337 59.9108 171.625L59.8548 171.665C59.4785 171.906 59.0856 172.12 58.679 172.305C58.1743 172.46 57.6418 172.501 57.1194 172.425C56.7328 172.871 56.2592 173.233 55.7277 173.489C55.4859 173.544 55.2395 173.576 54.9918 173.585C54.5043 173.574 54.0269 173.445 53.6001 173.209L53.5521 173.113C53.3362 172.497 53.1602 171.921 53.3921 171.721C53.6241 171.521 55.3438 169.018 55.5517 167.914C55.7597 166.81 55.9036 165.195 55.9036 165.195C55.9036 165.195 54.7358 169.194 54.5039 169.57C53.8121 170.706 53.062 171.806 52.2564 172.865C52.1729 172.903 52.0837 172.928 51.9924 172.937C51.9785 172.943 51.9636 172.946 51.9485 172.946C51.9333 172.946 51.9183 172.943 51.9044 172.937C51.5205 172.825 50.5607 172.785 50.3047 172.009C50.2949 171.924 50.2949 171.838 50.3047 171.753C50.6727 170.154 51.9524 168.338 52.1683 166.89C52.2243 166.482 52.2884 165.971 52.3524 165.427C52.4066 165.179 52.4413 164.928 52.4564 164.675C52.5923 163.491 52.7122 162.275 52.7682 161.699C52.7704 161.659 52.7704 161.619 52.7682 161.579C52.5775 162.982 52.3105 164.373 51.9684 165.747C51.8695 165.928 51.7573 166.102 51.6325 166.267C51.5045 166.386 51.3605 166.538 51.1926 166.674L51.0406 166.738C50.2408 166.994 49.5849 166.946 49.7449 165.939C49.8729 165.139 49.9769 163.811 50.0488 162.739C50.1048 162.419 50.1847 162.043 50.2647 161.651C50.4167 160.972 50.5847 160.212 50.7527 159.516C51.0726 158.572 51.4645 157.508 51.8644 156.62C52.7762 155.213 54.7119 152.469 55.5277 151.526C56.1389 150.729 56.6567 149.865 57.0713 148.95C57.2473 148.651 57.3993 148.372 57.5273 148.11C57.6153 147.918 57.7032 147.726 57.7672 147.55C58.567 145.295 61.5264 136.177 61.9983 133.473C62.4703 130.77 64.0619 119.948 64.8857 117.061C65.3904 114.964 65.6587 112.818 65.6856 110.662C65.79 108.613 65.6123 106.56 65.1577 104.559C64.5259 102.046 64.0425 99.4984 63.71 96.9287L64.1979 96.8327L65.3257 96.5928C66.0695 96.4408 67.0293 96.2489 68.0851 96.0169C71.7563 95.2171 76.7074 94.1933 78.643 93.7134L78.9069 93.6894Z" fill="#F8A98C"/>
<path d="M61.8066 194.253C61.2467 195.156 54.0482 195.052 54.0482 195.052L53.8242 195.708L54.9759 192.061C58.0633 192.789 60.5828 193.533 61.8066 194.253Z" stroke="#383838" stroke-width="0.150815" stroke-miterlimit="10"/>
<path d="M48.9293 294.848C48.5781 294.954 48.2157 295.019 47.8495 295.04C46.2498 295.184 37.3557 296.936 31.053 297.76H30.933L27.5577 298.12H27.4696C25.606 298.32 23.5744 298.52 22.8706 298.584C21.8308 298.664 18.6715 297.48 19.3113 295.488C19.5353 294.768 20.2551 293.953 21.7108 293.049C21.9777 292.839 22.2613 292.652 22.5587 292.489C24.8062 291.225 27.4536 288.402 29.5972 285.778C29.9651 285.338 30.3091 284.898 30.637 284.475L31.4369 283.459C31.8368 282.923 32.1887 282.443 32.4926 282.011C33.0045 281.283 33.3645 280.723 33.5404 280.411C33.8958 279.625 34.3949 278.911 35.0121 278.308C35.2155 278.159 35.4512 278.06 35.7 278.02C36.7397 277.82 41.2028 282.619 43.9782 283.483C44.5822 283.706 45.246 283.706 45.8499 283.483C46.2315 283.29 46.5631 283.011 46.8185 282.668C47.0739 282.325 47.2461 281.928 47.3216 281.507C47.3249 281.473 47.3249 281.438 47.3216 281.403C47.3243 281.387 47.3243 281.371 47.3216 281.355C48.5874 284.07 49.398 286.975 49.7211 289.953C49.7611 290.433 49.7851 290.857 49.8091 291.241C49.961 293.737 49.9291 294.536 48.9293 294.848Z" fill="#FDD70E" stroke="#383838" stroke-width="0.150815" stroke-miterlimit="10"/>
<path d="M30.8868 297.775C29.6311 297.943 28.4873 298.063 27.5195 298.135L30.8868 297.775Z" fill="#F2F1FB" stroke="#231F20" stroke-width="0.150815" stroke-miterlimit="10"/>
<path d="M80.0285 91.162C80.0285 91.6179 79.9485 92.0098 79.9005 92.3457C74.4936 93.5615 66.1114 95.4411 63.6319 95.985C63.5439 95.6651 63.4479 95.2811 63.3359 94.8492L80.0285 91.162Z" fill="#F2F1FB" stroke="#383838" stroke-width="0.150815" stroke-miterlimit="10"/>
<path d="M29.8773 88.81C29.7093 83.635 29.4854 74.6849 29.6773 70.9256C29.9493 65.4868 29.9973 62.9833 29.9973 62.9833" stroke="#383838" stroke-width="0.150815" stroke-miterlimit="10"/>
<path d="M30.0139 92.6977C30.0139 92.6977 30.0139 91.6259 29.918 89.9542" stroke="#383838" stroke-width="0.150815" stroke-miterlimit="10"/>
<path d="M47.3226 275.26C47.3226 276.06 47.3226 276.86 47.3226 277.659C47.3226 279.075 47.3226 280.395 47.3226 281.427C47.3247 281.461 47.3247 281.496 47.3226 281.531C47.2453 281.95 47.0723 282.345 46.817 282.687C46.5617 283.028 46.2311 283.306 45.8509 283.498C45.2477 283.725 44.5824 283.725 43.9792 283.498C41.2038 282.634 36.7407 277.843 35.7089 278.035C35.4567 278.077 35.218 278.178 35.0131 278.331C34.9722 277.978 34.9722 277.621 35.0131 277.267C35.0131 276.188 36.0208 271.269 36.9007 266.07C37.9884 267.413 41.3477 267.509 47.3785 267.485C47.3472 267.791 47.3339 268.098 47.3386 268.405C47.3226 270.085 47.3386 272.676 47.3226 275.26Z" fill="#F2F1FB" stroke="#383838" stroke-width="0.150815" stroke-miterlimit="10"/>
<path d="M58.0081 279.203C57.8472 279.589 57.6168 279.941 57.3282 280.243C56.3844 281.203 54.8727 281.427 52.9851 280.875L52.7532 280.803C52.4972 280.723 52.2413 280.619 51.9533 280.515C51.6654 280.411 51.2175 280.179 50.8336 279.987C50.4496 279.795 50.0817 279.571 49.6897 279.331C49.4498 279.187 49.2098 279.027 48.9699 278.867C48.442 278.499 47.8981 278.067 47.3702 277.66C47.3702 276.86 47.3702 276.06 47.3702 275.26C47.3702 272.677 47.3703 270.085 47.3223 268.445C47.3376 267.449 47.4393 266.457 47.6262 265.478C48.2741 265.438 49.0579 265.366 49.9458 265.246C52.6626 264.891 55.3404 264.283 57.9441 263.43C58.256 268.637 58.504 272.541 58.504 272.541C58.662 273.255 58.7478 273.984 58.7599 274.716C58.8454 276.249 58.5886 277.782 58.0081 279.203Z" fill="#F2F1FB" stroke="#383838" stroke-width="0.150815" stroke-miterlimit="10"/>
<path d="M51.7227 166.234C51.8474 166.07 51.9597 165.896 52.0586 165.714C52.0177 165.846 51.9555 165.97 51.8746 166.082C51.828 166.137 51.7772 166.188 51.7227 166.234Z" fill="#F2F1FB" stroke="#231F20" stroke-width="0.150815" stroke-miterlimit="10"/>
<path d="M51.9137 172.913H52.0016C51.4418 173.033 50.25 173.057 50.33 171.985C50.562 172.753 51.5217 172.801 51.9137 172.913Z" fill="#F2F1FB" stroke="#231F20" stroke-width="0.150815" stroke-miterlimit="10"/>
<path d="M52.5042 164.683C52.5057 164.664 52.5057 164.645 52.5042 164.627C52.4903 164.879 52.4583 165.131 52.4082 165.379C52.4082 165.123 52.4722 164.915 52.5042 164.683Z" fill="#F2F1FB" stroke="#231F20" stroke-width="0.150815" stroke-miterlimit="10"/>
<path d="M53.5996 173.185C54.0257 173.423 54.5032 173.555 54.9913 173.569C54.4394 173.593 53.8076 173.513 53.5996 173.185Z" fill="#F2F1FB" stroke="#231F20" stroke-width="0.150815" stroke-miterlimit="10"/>
<path d="M57.5345 148.11H57.5984C57.4618 148.398 57.3096 148.679 57.1426 148.95C57.3905 148.47 57.5345 148.11 57.5345 148.11Z" fill="#F2F1FB" stroke="#231F20" stroke-width="0.150815" stroke-miterlimit="10"/>
<path d="M58.6797 172.321C59.0861 172.139 59.4791 171.928 59.8555 171.689C59.5519 171.946 59.2053 172.146 58.8317 172.281L58.6797 172.321Z" fill="#F2F1FB" stroke="#231F20" stroke-width="0.150815" stroke-miterlimit="10"/>
<path d="M61.3667 170.538L61.0469 170.714C61.0869 170.675 61.1195 170.629 61.1429 170.578L61.3667 170.538Z" fill="#F2F1FB" stroke="#231F20" stroke-width="0.150815" stroke-miterlimit="10"/>
<path d="M65.2693 104.567C66.2371 108.198 65.7652 114.213 64.9573 117.084C64.1495 119.956 62.5578 130.793 62.0699 133.505C61.582 136.216 58.6707 145.326 57.8389 147.582C57.007 149.837 53.6397 153.637 52.6479 155.252C52.4083 155.649 52.1945 156.06 52.008 156.484L50.7363 156.412C56.3352 125.658 57.135 118.308 57.135 108.582C57.135 105.199 60.2224 102.223 64.2536 99.7837C64.4935 101.135 64.8294 102.903 65.2693 104.567Z" fill="#E53337" stroke="#383838" stroke-width="0.150815" stroke-miterlimit="10"/>
<path d="M50.4972 156.396L47.05 190.341C45.9302 190.141 44.8104 189.949 43.7227 189.773C44.9544 184.222 46.73 170.257 47.7938 156.3C48.6976 156.324 49.6014 156.324 50.4972 156.396Z" fill="#E53337" stroke="#383838" stroke-width="0.150815" stroke-miterlimit="10"/>
<path d="M29.9024 89.9382C27.9983 89.4752 26.2043 88.6407 24.6235 87.4827C22.04 85.5551 21.976 83.6275 21.4961 80.8921C21.6081 80.6281 21.744 80.3562 21.888 80.0922C21.974 79.9131 22.0488 79.7288 22.112 79.5403C22.3359 80.5881 22.6319 82.0518 22.7519 82.8837C23.1156 84.4833 24.0372 85.901 25.3514 86.8828C26.2952 87.6827 28.5026 88.4025 29.8784 88.8184C29.8784 89.2184 29.8944 89.5943 29.9024 89.9382Z" fill="#F2F1FB" stroke="#383838" stroke-width="0.150815" stroke-miterlimit="10"/>
<path d="M62.4547 292.936C62.3588 293.832 49.4334 294.816 48.9375 294.848C49.9933 294.512 49.9613 293.624 49.7373 290.737C54.0933 290.447 58.3941 289.6 62.5347 288.217C62.5507 290.401 62.5187 292.296 62.4547 292.936Z" fill="#F2F1FB" stroke="#383838" stroke-width="0.150815" stroke-miterlimit="10"/>
<path d="M48.9293 294.848C48.5781 294.954 48.2157 295.018 47.8495 295.04C46.2498 295.184 37.3557 296.935 31.053 297.759H30.933L27.5577 298.119H27.4696C25.606 298.319 23.5744 298.519 22.8706 298.583C21.8308 298.663 18.6715 297.479 19.3113 295.488C20.799 295.991 23.5984 295.959 27.3097 295.664C32.8206 295.232 42.7625 293.024 49.8011 291.248C49.961 293.736 49.9291 294.536 48.9293 294.848Z" fill="#F2F1FB" stroke="#383838" stroke-width="0.150815" stroke-miterlimit="10"/>
<path d="M36.7015 284.954C34.8893 284.626 33.1113 284.131 31.3906 283.474C31.7905 282.938 32.1425 282.459 32.4465 282.027C36.6856 283.834 37.2454 283.778 37.7653 284.138C38.2852 284.498 39.0931 285.282 36.7015 284.954Z" fill="#F2F1FB" stroke="#383838" stroke-width="0.150815" stroke-miterlimit="10"/>
<path d="M34.7153 286.914C32.9707 286.696 31.2494 286.321 29.5723 285.794C29.9402 285.354 30.2842 284.914 30.6121 284.49C33.3155 285.53 36.2669 286.042 36.4829 286.29C36.6988 286.538 36.2109 286.914 34.7153 286.914Z" fill="#F2F1FB" stroke="#383838" stroke-width="0.150815" stroke-miterlimit="10"/>
<path opacity="0.2" d="M31.2136 104.247C27.2144 112.094 19.32 121.428 15.6088 125.603C14.8089 125.747 14.3051 125.675 14.2251 125.291C13.8491 123.523 19.456 116.493 21.0157 107.415C22.1514 100.904 21.0157 101.608 19.7119 97.4167C20.9107 95.677 21.7284 93.7036 22.1114 91.6259C22.2644 90.5133 22.5967 89.4328 23.0952 88.4265C23.2674 88.632 23.4546 88.8245 23.6552 89.0024C23.9786 89.2872 24.3295 89.5391 24.7029 89.7542C25.1286 89.9985 25.5791 90.1969 26.0467 90.3461L26.3506 90.4501L27.1504 90.7061L28.2462 91.042C28.7701 91.2121 29.3045 91.3484 29.8459 91.4499C29.8459 91.5059 29.8939 91.8978 29.9579 92.5137C29.9579 92.6816 29.9578 92.8656 30.0138 93.0736C30.0698 93.2815 30.0139 93.3455 30.0619 93.4975C30.1099 93.6494 30.1018 93.9534 30.1258 94.2013C30.1498 94.4493 30.1258 94.5373 30.1818 94.7132C30.1818 95.0332 30.2537 95.3691 30.2857 95.721C30.3417 96.2489 30.3978 96.8008 30.4538 97.3687C30.5098 97.9366 30.5737 98.5284 30.6377 99.1203L30.7097 99.7602C30.7817 100.464 30.8537 101.152 30.9337 101.824C31.0376 102.672 31.1256 103.535 31.2136 104.247Z" fill="#231F20"/>
<path opacity="0.2" d="M28.0138 137.792C26.918 141.36 25.0144 156.237 25.0144 156.237C25.0313 157.35 24.9858 158.464 24.8784 159.572C24.8784 159.908 24.7585 160.732 24.6305 161.9C24.2546 161.9 23.8786 161.9 23.4947 161.9H23.1588C22.806 159.716 22.7281 157.496 22.9268 155.293C22.9988 153.997 23.1187 152.613 23.2707 151.214C23.6226 148.014 24.1346 144.767 24.6545 142.024C24.9772 140.198 25.3936 138.391 25.9022 136.609L26.0861 135.977C27.0859 132.226 25.6463 131.178 19.5275 126.307L18.5117 125.507C20.1323 125.045 21.8097 124.814 23.4947 124.819C25.7418 124.815 27.9704 125.224 30.0693 126.027C29.3335 131.018 28.5337 136.057 28.0138 137.792Z" fill="#231F20"/>
<path opacity="0.2" d="M35.6124 172.241C35.6124 172.345 35.6124 172.457 35.6124 172.561C35.6124 172.665 35.6124 172.785 35.6124 172.889C35.6124 173.689 35.5404 174.681 35.4684 175.721C35.4684 176.073 35.4124 176.44 35.3884 176.816C35.3884 176.992 35.3885 177.184 35.3405 177.376C35.3405 177.744 35.2765 178.176 35.2525 178.52V178.728C35.2045 179.184 35.1645 179.664 35.1165 180.128C35.1165 180.288 35.1165 180.448 35.1165 180.608C35.1165 180.896 35.0605 181.176 35.0206 181.455C34.9646 182.055 34.8926 182.655 34.8286 183.239C34.8286 183.439 34.7806 183.631 34.7646 183.823C34.7646 183.823 34.7646 183.863 34.7646 183.887C34.7646 184.191 34.6847 184.487 34.6527 184.783C34.6527 184.927 34.6526 185.079 34.5966 185.223C34.5966 185.495 34.5326 185.767 34.4926 186.023C34.4877 186.046 34.4877 186.071 34.4926 186.094C34.4366 186.518 34.3807 186.894 34.3247 187.326C34.2687 187.758 34.2048 188.126 34.1488 188.462C34.0928 188.798 34.0208 189.262 33.9568 189.582C32.4397 189.339 30.9386 189.006 29.4617 188.582C28.6619 188.358 27.8621 188.118 27.1582 187.87C27.5821 187.073 28.1486 186.36 28.8298 185.767C31.3893 183.591 32.829 182.879 33.133 177.768C33.4369 172.657 34.4926 166.179 34.4686 160.004C34.7966 163.251 35.3885 168.442 35.6605 170.29C35.6881 170.941 35.6721 171.593 35.6124 172.241Z" fill="#231F20"/>
<path opacity="0.2" d="M64.9588 117.084C64.159 119.972 62.5593 130.793 62.0714 133.497C61.5835 136.2 58.6722 145.318 57.8404 147.574C57.7764 147.75 57.6883 147.942 57.6004 148.134C57.5124 148.326 57.3205 148.678 57.1445 148.974C56.7299 149.888 56.2119 150.752 55.6008 151.549C54.8009 152.493 52.8494 155.236 51.9376 156.644C51.5376 157.532 51.1377 158.596 50.8258 159.539C50.6578 160.235 50.4899 160.995 50.3379 161.675C50.3379 159.339 51.6256 155.052 53.6092 149.813C56.0087 143.415 62.4794 117.124 63.3432 107.654C64.2071 98.184 59.344 94.2728 60.6797 77.8842L60.7518 78.0121C61.1037 85.0267 62.9832 93.6249 63.863 97.2082C64.1944 99.6939 64.6671 102.159 65.2788 104.591C66.2386 108.19 65.7667 114.205 64.9588 117.084Z" fill="#231F20"/>
<path d="M60.8396 66.8627C60.8396 70.206 60.4877 77.8284 61.0955 82.1955C61.7034 86.5626 63.8322 98.3624 64.2561 99.7861" stroke="#383838" stroke-width="0.150815" stroke-miterlimit="10"/>
<path d="M59.2401 42.7001C56.5447 47.883 52.0416 55.8014 51.7457 56.2973C51.4497 56.7932 43.7473 65.6874 43.7473 65.6874H42.4355L50.5299 56.1853L58.9121 40.8285L58.9601 40.9885C59.0141 41.1419 59.0542 41.2998 59.0801 41.4604C59.0801 41.6283 59.1361 41.7883 59.1521 41.9483C59.1681 42.1082 59.2161 42.4762 59.2401 42.7001Z" fill="#F2F1FB" stroke="#383838" stroke-width="0.150815" stroke-miterlimit="10"/>
<path d="M43.028 63.8634L42.468 64.4553C41.4494 63.4916 40.6147 62.3506 40.0046 61.088C39.1694 59.4961 38.9257 57.6597 39.3167 55.905C39.5487 54.2494 41.5642 50.7141 41.5642 50.7141H41.6203C41.4763 51.8019 41.3004 52.9776 41.1564 54.0814C40.8405 54.7519 40.5732 55.4442 40.3565 56.153C40.0135 57.4123 40.0637 58.7463 40.5005 59.9762C40.8444 61.256 43.028 63.8634 43.028 63.8634Z" fill="#F2F1FB" stroke="#383838" stroke-width="0.150815" stroke-miterlimit="10"/>
<path opacity="0.2" d="M65.7978 110.67C65.9022 108.621 65.7246 106.568 65.2699 104.567C64.6381 102.054 64.1548 99.5063 63.8223 96.9366L64.3102 96.8407L65.4379 96.6007C65.4379 96.6007 66.0938 100.736 66.7896 103.679C67.4855 106.623 65.7978 110.67 65.7978 110.67Z" fill="#231F20"/>
<path opacity="0.2" d="M66.5742 160.075L65.9823 164.586C65.5451 164.998 65.0681 165.365 64.5586 165.682C64.889 163.518 65.0867 161.336 65.1506 159.148C65.6065 159.284 65.9024 159.38 65.9504 159.388C66.0648 159.469 66.1718 159.56 66.2703 159.659L66.3343 159.723C66.4491 159.813 66.533 159.936 66.5742 160.075Z" fill="#231F20"/>
<path opacity="0.2" d="M49.7377 290.737C49.7377 290.497 49.7376 290.249 49.6896 289.977C49.3666 286.999 48.5559 284.094 47.2901 281.379C47.2901 280.355 47.2901 279.051 47.2901 277.652C47.85 278.099 48.3939 278.499 48.8898 278.859C48.3619 278.491 47.818 278.059 47.2901 277.652C47.2901 276.852 47.2901 276.052 47.2901 275.252C47.2901 272.669 47.2902 270.077 47.2422 268.437C47.2576 267.441 47.3593 266.448 47.5461 265.47C48.074 262.271 49.2017 257.424 50.2975 252.585C50.2095 257.168 50.0335 261.439 49.8656 265.238C49.6016 271.309 49.3857 276.204 49.6337 279.315C49.6698 279.851 49.7339 280.385 49.8256 280.915C50.6255 285.354 52.825 291.313 53.4249 294.464C51.0254 294.696 49.0898 294.848 48.8978 294.856C50.0096 294.512 49.9616 293.624 49.7377 290.737Z" fill="#231F20"/>
<path d="M42.0117 39.6365C43.6834 38.8366 47.3226 36.4371 48.1784 35.1014L49.0343 33.7577" stroke="#383838" stroke-width="0.150815" stroke-miterlimit="10"/>
<path opacity="0.2" d="M56.9433 42.844C56.3527 44.201 55.6796 45.5205 54.9277 46.7952C54.9757 39.6687 54.7517 33.8459 55.9675 32.0782C55.9675 32.6221 55.9675 33.366 56.0235 34.4778C56.0235 35.1736 56.0875 35.8135 56.1435 36.3734C56.2276 37.184 56.3773 37.9865 56.5914 38.7729C56.5914 38.7729 57.5032 41.2204 56.9433 42.844Z" fill="#231F20"/>
<path opacity="0.2" d="M47.5056 35.8449C44.8422 39.6521 43.6105 38.2444 43.0266 44.6431C42.7887 47.7599 42.1791 50.8371 41.2109 53.8092C41.3549 52.7774 41.5149 51.6897 41.6509 50.6739C41.7629 49.874 41.8588 49.1382 41.9148 48.4903C41.9628 48.0344 41.9788 47.6345 41.9868 47.2986C41.9868 45.9308 42.0347 45.107 41.9868 44.7151C42.0507 44.4831 41.3229 40.172 41.3229 40.172L43.7864 38.5723L46.2979 36.9007L47.5056 35.8449Z" fill="#231F20"/>
<path d="M39.3148 20.3041C37.7152 24.2473 35.8515 25.719 35.9875 26.3429C36.1235 26.9668 37.3872 27.9426 37.5872 27.9426" stroke="#383838" stroke-width="0.150815" stroke-miterlimit="10"/>
<path d="M41.6922 32.2222C41.6961 32.2541 41.6961 32.2863 41.6922 32.3182C41.5962 33.03 40.4604 33.5899 39.0687 33.5899C38.4116 33.6066 37.7605 33.461 37.1731 33.166C36.9782 33.0886 36.8078 32.96 36.6797 32.794C36.5517 32.6279 36.4707 32.4304 36.4453 32.2222C36.4453 31.4224 37.621 30.8465 39.0687 30.8465C40.5164 30.8465 41.6922 31.4624 41.6922 32.2222Z" fill="#383838" stroke="#383838" stroke-width="0.150815" stroke-miterlimit="10"/>
<path d="M41.6832 32.3499C41.5872 33.0617 40.4515 33.6216 39.0598 33.6216C38.4027 33.6382 37.7515 33.4927 37.1641 33.1977C37.692 32.5258 39.2756 32.2539 41.6832 32.3499Z" fill="#E47797"/>
</svg>
