<svg width="562" height="118" viewBox="0 0 562 118" fill="none" xmlns="http://www.w3.org/2000/svg">
<path d="M311.266 117.129V107.91C311.266 101.764 314.339 98.6912 320.485 98.6912H322.789C324.326 98.6912 325.094 97.9229 325.094 96.3864C325.094 94.8499 324.326 94.0817 322.789 94.0817H312.418L313.109 87.1674H322.789C328.935 87.1674 332.009 90.2404 332.009 96.3864C332.009 102.532 328.935 105.605 322.789 105.605H320.485C318.948 105.605 318.18 106.374 318.18 107.91V110.215H332.009V117.129H311.266Z" fill="white"/>
<path d="M345.376 94.0817C342.61 94.0817 341.228 95.6182 341.228 98.6912V105.605C341.228 108.679 342.61 110.215 345.376 110.215C347.988 110.215 349.294 108.679 349.294 105.605V98.6912C349.294 95.6182 347.988 94.0817 345.376 94.0817ZM345.376 87.1674C352.598 87.1674 356.209 91.0086 356.209 98.6912V105.605C356.209 113.288 352.598 117.129 345.376 117.129C338.001 117.129 334.313 113.288 334.313 105.605V98.6912C334.313 91.0086 338.001 87.1674 345.376 87.1674Z" fill="white"/>
<path d="M358.513 117.129V107.91C358.513 101.764 361.586 98.6912 367.732 98.6912H370.037C371.574 98.6912 372.342 97.9229 372.342 96.3864C372.342 94.8499 371.574 94.0817 370.037 94.0817H359.666L360.357 87.1674H370.037C376.183 87.1674 379.256 90.2404 379.256 96.3864C379.256 102.532 376.183 105.605 370.037 105.605H367.732C366.196 105.605 365.428 106.374 365.428 107.91V110.215H379.256V117.129H358.513Z" fill="white"/>
<path d="M388.475 87.1674V98.6912C388.475 100.228 389.244 100.996 390.78 100.996H395.39V87.1674H402.304V117.129H395.39V107.91H390.78C384.634 107.91 381.561 104.837 381.561 98.6912V87.1674H388.475Z" fill="white"/>
<path d="M152.874 74.0942L151.496 60.308H174.473C177.536 60.308 179.068 58.7762 179.068 55.7126C179.068 52.649 177.536 51.1172 174.473 51.1172H169.877C157.623 51.1172 151.496 44.99 151.496 32.7355C151.496 20.4811 157.623 14.3539 169.877 14.3539H189.178L190.557 28.1401H169.877C166.814 28.1401 165.282 29.6719 165.282 32.7355C165.282 35.7992 166.814 37.331 169.877 37.331H174.473C186.727 37.331 192.854 43.4582 192.854 55.7126C192.854 67.967 186.727 74.0942 174.473 74.0942H152.874Z" fill="white"/>
<path d="M118.028 41.9264H127.219C131.814 41.9264 134.112 39.6287 134.112 35.0332C134.112 30.4378 131.814 28.1401 127.219 28.1401H118.028V41.9264ZM127.219 14.3539C141.005 14.3539 147.898 21.247 147.898 35.0332C147.898 44.2241 145.294 50.0449 140.086 52.4958L147.898 74.0942H132.733L127.219 55.7126H118.028V74.0942H104.242V14.3539H127.219Z" fill="white"/>
<path fill-rule="evenodd" clip-rule="evenodd" d="M251.362 73.4616C251.362 73.4616 253.548 74.1711 253.874 73.3787C254.2 72.5863 253.822 70.8801 254.276 69.8C254.577 69.0186 254.782 68.2039 254.887 67.3733C254.188 67.0446 253.428 66.8668 252.656 66.8515C252.8 66.2894 253.139 65.7965 253.612 65.4596C254.31 65.0781 254.323 65.185 256.107 62.1373C257.891 59.0896 258.964 57.5585 259.12 56.0841C259.3 54.972 259.293 53.838 259.102 52.7279C258.885 52.2855 258.77 51.7995 258.768 51.3065C258.765 50.8135 258.874 50.3263 259.087 49.8817C259.552 48.7943 259.57 47.5677 259.137 46.4672C258.895 46.0239 259.024 44.6324 259.087 43.8092C259.15 42.986 259.118 42.5694 258.478 42.2016C258.48 41.8531 258.412 41.5078 258.276 41.187C258.14 40.8662 257.939 40.5766 257.687 40.3362C256.884 39.733 254.737 39.3558 254.749 38.7834C254.768 38.3726 254.828 37.9647 254.927 37.5655C254.487 37.5519 254.053 37.4646 253.641 37.3074C253.076 37.0624 251.655 35.9342 252.392 33.5279C252.995 34.073 253.546 34.6733 254.038 35.3211C255.122 36.557 256.39 37.6178 257.799 38.4659C259.19 39.418 260.681 40.216 262.244 40.8459C263.715 41.3304 264.743 41.7703 264.909 42.3671C265.077 43.0549 265.491 43.6572 266.074 44.0596C266.607 44.3023 266.753 44.4731 266.935 45.4208C267.117 46.3685 267.437 46.9032 268.117 47.0404C268.243 46.1417 268.238 45.2293 268.102 44.3321C267.858 43.2305 267.075 42.6395 266.233 41.7149C265.391 40.7902 265.668 40.3656 264.208 40.0199C262.785 39.5907 261.479 38.8402 260.392 37.8263C259.592 37.0854 258.897 37.1593 257.931 36.0553C257.054 34.899 256.246 33.6919 255.512 32.4403C254.846 31.6061 254.34 30.6567 254.018 29.6396C253.594 28.2482 252.88 27.5987 251.717 27.3926C250.554 27.1865 249.448 27.3562 248.623 26.9C247.798 26.4439 247.841 26.4364 248.002 26.141C248.162 25.8455 248.086 25.4575 248.581 25.5061C249.076 25.5547 249.402 24.4968 249.548 23.9773C249.694 23.4577 249.75 22.8675 249.935 22.2553C250.12 21.6432 250.518 21.7163 250.688 21.4321C250.859 21.148 251.466 19.1882 250.448 18.0696C249.43 16.9511 248.987 16.2162 247.048 16.3115C246.398 16.2845 245.751 16.4147 245.163 16.6911C244.574 16.9674 244.061 17.3816 243.666 17.8987C242.932 18.7447 243.114 19.4171 243.04 20.3879C242.965 21.3586 243.381 21.274 243.697 21.6433C244.013 22.0127 243.756 22.3273 243.947 22.7453C244.118 23.0386 244.188 23.3794 244.148 23.7163C244.125 24.1605 245.107 24.7826 245.111 25.2076C245.12 25.7212 244.934 26.2192 244.59 26.6008C244.217 26.9596 243.828 26.9139 243.733 26.6358C243.637 26.3576 243.564 26.2725 243.398 26.9074C243.232 27.5423 242.917 28.1973 241.4 28.325C239.882 28.4526 239.069 28.5386 238.384 29.3034C237.699 30.0682 235.474 30.4173 234.718 30.7202C233.963 31.0231 232.655 31.7294 232.627 32.789C232.599 33.8485 233.515 33.526 234.555 33.68C235.594 33.8339 237.295 32.415 238.803 32.2761C240.31 32.1371 241.12 32.1037 241.41 32.4658C241.701 32.8279 242.323 34.8184 242.911 35.7341C243.499 36.6497 243.182 38.2816 244.004 39.194C244.826 40.1065 245.608 41.1219 245.677 42.157C245.781 42.8787 245.607 43.613 245.19 44.2111C244.955 44.7029 244.844 45.2448 244.867 45.7894C244.355 45.6648 243.816 45.7453 243.363 46.0135C242.607 46.465 241.603 46.8127 240.72 49.1865C239.837 51.5603 238.028 53.5445 237.226 55.415C236.424 57.2855 235.867 58.6017 235.913 59.1041C235.959 59.6066 236.519 59.9151 236.661 60.4249C236.802 60.9348 237.422 60.3241 238.433 60.4337C238.433 60.4337 238.336 61.5622 239.226 61.7155C240.117 61.8689 240.58 60.2696 241.035 60.1453C241.49 60.021 241.775 60.1809 241.884 60.6989C242.297 61.7101 243.047 62.5477 244.006 63.0703C245.109 63.7226 246.178 64.4319 247.208 65.1954C247.208 65.1954 247.209 66.4135 246.78 66.7552C246.536 66.9201 246.341 67.1487 246.218 67.4162C246.094 67.6836 246.047 67.9798 246.079 68.2726C246.039 69.2143 245.929 71.1912 245.664 71.33C245.399 71.4689 245.544 71.5117 245.607 71.7928C245.786 72.4339 246.12 73.0212 246.58 73.5025L249.271 73.7093C249.271 73.7093 249.504 73.3024 248.938 72.9299C248.64 72.7837 248.382 72.567 248.186 72.2986C247.99 72.0301 247.863 71.718 247.815 71.3892C247.746 70.6301 248.029 70.4924 248.029 70.4924C248.029 70.4924 249.123 70.3856 249.355 69.7131C249.462 69.5078 249.505 69.2756 249.479 69.0458C249.453 68.8161 249.36 68.5992 249.21 68.4227C248.997 68.2311 249.095 67.5113 249.095 67.5113C249.095 67.5113 249.988 67.4948 250.04 67.913C250.093 68.3312 250.178 68.6827 251.048 68.6911C251.048 68.6911 251.186 68.4098 251.552 69.3085C251.919 70.2071 252.415 71.0733 252.651 71.8665C252.887 72.6596 252.979 72.5022 252.745 72.7072C252.512 72.9122 251.723 73.1022 251.362 73.4616Z" fill="white"/>
<path d="M319.561 43.6335C319.561 43.6335 321.175 47.9072 313.03 64.7628C309.383 72.312 303.189 79.4788 294.4 84.7646C285.611 90.0505 274.862 92.803 269.641 99.7646C264.319 106.861 268.351 113.719 272.464 117.185C272.464 117.185 266.978 107.586 277.142 100.007C287.306 92.4269 316.741 78.8771 324.968 54.1153C324.965 54.118 323.995 46.94 319.561 43.6335Z" fill="white"/>
<path d="M272.461 117.185C272.461 117.185 278.672 122.024 286.333 107.91C293.995 93.7955 298.997 81.6183 301.496 58.8752C303.58 39.9165 299.073 30.3401 315.934 17.179C328.434 7.41988 328.598 0 328.598 0C328.598 0 326.258 10.403 310.291 18.7928C296.779 25.8893 297.63 40.6503 296.984 58.9567C296.5 72.6661 293.649 86.6624 287.064 99.2809C286.089 101.137 279.639 112.588 272.461 117.185Z" fill="white"/>
<path d="M328.593 0C328.593 0 326.9 7.50142 327.704 12.2586C328.646 17.8144 331.092 21.0506 329.237 27.5819C328.323 30.8012 326.172 37.2595 323.268 39.4385C323.268 39.4385 327.221 44.117 328.106 48.8743C328.106 48.8743 335.85 39.8407 333.268 22.8247C331.548 11.4573 327.06 10.7263 328.593 0Z" fill="white"/>
<path fill-rule="evenodd" clip-rule="evenodd" d="M234.989 27.5845L233.61 13.7844H198.189V73.5844H233.61C233.61 73.5844 234.105 66.4916 234.477 62.7696C233.877 61.7424 234.22 61.4855 234.22 61.4855C233.706 61.4855 232.422 62.0748 232.422 61.4855C232.422 60.7151 231.535 59.7844 231.535 59.7844H211.989V50.5846H230.39V36.7847H211.989V27.5845H234.989Z" fill="white"/>
<path fill-rule="evenodd" clip-rule="evenodd" d="M261.67 27.5845C266.883 27.5846 269.49 30.6513 269.49 36.7847V73.5845H283.29V36.7847C283.29 21.4512 276.083 13.7844 261.67 13.7844C254.092 13.7844 248.465 15.8168 244.788 19.8808C244.788 19.8808 239.233 33.4477 243.723 31.9513C246.804 30.924 253.449 35.2899 253.449 35.2899C253.878 30.1529 256.618 27.5845 261.67 27.5845Z" fill="white"/>
<path d="M373.011 59.7844H375.311V36.784H389.111V73.5843H373.011C353.077 73.5843 343.111 63.6175 343.111 43.684C343.111 23.7512 353.078 13.7846 373.011 13.7844H378.531L379.911 27.5845H373.011C362.277 27.5845 356.911 32.951 356.911 43.6842C356.911 54.4183 362.278 59.785 373.011 59.7844Z" fill="white"/>
<path d="M561.999 37.2304V74.0307H548.199V60.2308H532.099V74.0308H518.299V37.2304C518.299 21.8975 525.659 14.231 540.379 14.2307C554.793 14.231 561.999 21.8975 561.999 37.2304ZM540.379 28.0307C534.859 28.0307 532.099 31.0973 532.099 37.2304V46.4306H548.199V37.2304C548.199 31.0977 545.592 28.031 540.379 28.0307Z" fill="white"/>
<path fill-rule="evenodd" clip-rule="evenodd" d="M457.866 73.5844V34.4844C457.866 34.4844 454.866 33.749 451.527 34.2626C449.267 34.6104 446.953 35.6502 445.364 34.0058C444.566 33.18 444.188 31.4376 444.188 31.4376C444.107 32.4128 444.066 33.4284 444.066 34.4844V73.5844H457.866Z" fill="white"/>
<path d="M485.467 73.5844V34.4844C485.467 29.8846 487.767 27.5846 492.367 27.5845C496.967 27.5843 499.267 29.8843 499.267 34.4844V73.5844H513.067V34.4844C513.067 20.6844 506.167 13.7844 492.367 13.7844C484.7 13.7842 480.1 16.0842 478.567 20.6844C477.24 16.7062 473.62 14.4482 467.707 13.9105C466.783 13.8265 465.803 13.7844 464.766 13.7844C463.075 13.7844 461.744 14.0233 460.259 14.2307C460.465 14.847 459.232 18.8534 457.948 20.6512C456.664 22.4489 455.893 22.9625 454.352 23.4762C453.303 23.826 453.068 25.9588 453.068 27.0716C453.839 27.1573 454.866 27.5853 456.15 27.0716C457.691 26.3012 463.084 26.0444 464.766 27.5845C465.456 27.5844 466.094 27.636 466.68 27.7394C470.004 28.3254 471.666 30.5738 471.666 34.4844V73.5844H485.467Z" fill="white"/>
<path d="M99.6404 44.1311C99.6404 64.0649 90.9003 74.0316 73.4203 74.0313C55.6333 74.0313 46.74 64.0646 46.7402 44.1311C46.7405 24.1976 55.6338 14.2308 73.4202 14.2307C90.9004 14.2307 99.6404 24.1975 99.6404 44.1311ZM73.4203 28.0309C64.8333 28.0309 60.54 33.3976 60.5403 44.1311C60.5403 54.8652 64.8336 60.2319 73.4203 60.2313C81.7004 60.2313 85.8405 54.8646 85.8404 44.1311C85.8403 33.3976 81.7003 28.0309 73.4203 28.0309Z" fill="white"/>
<path d="M23 14.2306C36.8 14.2306 43.7001 21.1306 43.7 34.9306C43.7 48.7312 36.8 55.6313 23 55.6311H13.8V74.031H0V14.2306H23ZM13.8 41.8311H23C27.6001 41.8311 29.9002 39.531 29.9 34.9308C29.8998 30.3306 27.5998 28.0306 23 28.0306H13.8V41.8311Z" fill="white"/>
<path d="M416.592 13.926C401.872 13.926 394.512 21.5926 394.512 36.9257V73.726H408.312V36.9254C408.312 30.7925 411.072 27.726 416.592 27.7257C421.805 27.7257 424.412 30.7922 424.412 36.9254V73.7256H438.212V36.9254C438.212 21.5925 431.005 13.926 416.592 13.926Z" fill="white"/>
<path fill-rule="evenodd" clip-rule="evenodd" d="M395.713 60.7633L411.102 60.9494C411.102 60.9494 411.392 60.0036 412.109 59.9578C412.826 59.912 413.375 59.8511 413.131 59.2713C412.662 58.0885 412.393 56.8355 412.338 55.5641C412.323 54.0844 413.848 52.2077 413.848 52.2077C414.327 52.9525 414.625 53.7989 414.718 54.6793C414.809 56.0066 416.137 58.1883 417.663 58.4935C417.663 58.4935 418.227 58.7069 418.334 57.3949C418.441 56.0829 418.15 54.5421 419.92 52.2077C421.69 49.8733 422.605 49.294 426.602 49.1108C430.599 48.9277 432.705 49.0805 435.207 48.1956C437.709 47.3106 438.075 47.28 438.105 46.7308C438.136 46.1815 437.037 40.186 436.702 38.7215C436.366 37.257 434.78 34.4195 434.475 31.8868C434.475 31.8868 436.092 28.5609 436.275 26.3641C436.275 26.3641 444.696 25.0826 446.527 24.3503C446.527 24.3503 445.978 31.8564 446.527 32.3141C447.076 32.7718 452.69 32.4971 454.429 31.9479C456.169 31.3986 459.952 32.3139 460.745 31.6732C461.539 31.0324 462.302 28.515 462.302 28.2252C462.302 27.9354 457.359 28.0727 455.665 28.6218C453.972 29.1709 451.058 28.6829 451.058 28.6829C451.058 28.6829 450.417 25.8148 451.165 24.0756C451.399 23.4335 451.774 22.8522 452.262 22.3743C452.751 21.8964 453.34 21.5341 453.987 21.3142C455.146 20.826 456.611 18.6139 456.977 17.9118C457.533 16.9391 457.91 15.8748 458.091 14.7692C458.228 13.5334 458.091 11.8552 457.878 11.6263C457.664 11.3975 455.436 9.35288 453.423 9.18525C451.409 9.01762 450.661 10.6652 450.066 11.7483C449.471 12.8315 449.288 13.5027 447.824 13.518C446.359 13.5334 444.635 12.5113 443.644 11.245C442.652 9.97864 441.355 8.65134 440.882 7.03417C440.409 5.417 439.677 5.79856 438.441 4.95935C437.205 4.12013 436.946 3.86091 435.573 3.98295C434.2 4.105 433.849 3.98295 431.393 5.02038C428.937 6.05781 426.374 6.45448 426.191 6.21024C426.007 5.96601 425.382 6.01222 425.137 4.89852C424.96 4.17892 424.627 3.50707 424.161 2.93042C423.953 3.53649 423.692 4.12348 423.383 4.68488C422.834 5.70716 422.453 6.01208 422.681 7.27845C422.91 8.54483 423.322 9.04811 424.604 9.21593C426.414 9.40327 428.242 9.30029 430.02 8.91087C431.957 8.46842 435.359 8.88043 436.031 8.69732C436.031 8.69732 437.617 12.2216 438.624 13.5488C438.624 13.5488 437.937 13.625 436.091 14.8761C434.245 16.1271 433.223 16.6457 431.332 17.912C429.44 19.1783 428.265 20.0021 426.816 21.0243C425.363 22.1192 424.083 23.4255 423.017 24.8997C422.102 26.1508 422.62 27.249 422.666 27.829C422.712 28.409 423.459 30.2547 423.337 33.1839C423.215 36.1131 423.185 37.2115 423.093 39.5305C423.002 41.8494 423.216 42.5817 422.895 42.8411C422.575 43.1004 419.798 43.9089 417.296 45.3888C414.794 46.8686 414.489 48.2874 411.285 48.7299C408.081 49.1725 408.234 49.0809 407.593 49.9353C407.25 50.3532 407.009 50.8446 406.887 51.3712C406.765 51.8978 406.767 52.4454 406.891 52.9713C406.891 52.9713 404.817 53.8563 404.771 54.1308C404.725 54.4053 406.601 57.487 406.738 58.204L397.402 57.9598L395.021 52.8184C395.252 55.4667 395.482 58.115 395.713 60.7633Z" fill="white"/>
</svg>
